M48
;DRILL file {KiCad 4.0.7} date 04/10/18 22:25:09
;FORMAT={-:-/ absolute / inch / decimal}
FMAT,2
INCH,TZ
T1C0.031
T2C0.039
T3C0.043
T4C0.052
T5C0.063
T6C0.106
%
G90
G05
M72
T1
X4.1991Y-4.2175
X4.2975Y-4.2175
X4.313Y-4.8325
X4.385Y-2.2
X4.385Y-2.5
X4.4675Y-4.3075
X4.4695Y-4.1305
X4.485Y-2.2
X4.485Y-2.5
X4.585Y-2.2
X4.585Y-2.5
X4.5925Y-4.8325
X4.685Y-2.2
X4.685Y-2.5
X4.7675Y-4.3075
X4.7695Y-4.1305
X4.785Y-2.2
X4.785Y-2.5
X4.885Y-2.2
X4.885Y-2.5
X4.985Y-2.2
X4.985Y-2.5
X5.085Y-2.2
X5.085Y-2.5
X5.2835Y-4.259
X5.3819Y-4.259
X5.485Y-2.2
X5.485Y-2.5
X5.585Y-2.2
X5.585Y-2.5
X5.685Y-2.2
X5.685Y-2.5
X5.785Y-2.2
X5.785Y-2.5
X5.8137Y-4.3217
X5.815Y-4.1425
X5.885Y-2.2
X5.885Y-2.5
X5.9825Y-4.805
X5.985Y-2.2
X5.985Y-2.5
X6.085Y-2.2
X6.085Y-2.5
X6.1137Y-4.3217
X6.115Y-4.1425
X6.185Y-2.2
X6.185Y-2.5
X6.262Y-4.805
X6.3325Y-4.2225
X6.4309Y-4.2225
T2
X4.504Y-2.74
X4.555Y-3.036
X4.555Y-3.836
X4.604Y-2.74
X4.655Y-3.036
X4.655Y-3.836
X4.704Y-2.74
X4.755Y-3.036
X4.755Y-3.836
X4.855Y-3.036
X4.855Y-3.836
X4.95Y-2.744
X4.955Y-3.036
X4.955Y-3.836
X5.05Y-2.744
X5.055Y-3.036
X5.055Y-3.836
X5.15Y-2.744
X5.155Y-3.036
X5.155Y-3.836
X5.255Y-3.036
X5.255Y-3.836
X5.355Y-3.036
X5.355Y-3.836
X5.394Y-2.745
X5.455Y-3.036
X5.455Y-3.836
X5.494Y-2.745
X5.555Y-3.036
X5.555Y-3.836
X5.594Y-2.745
X5.655Y-3.036
X5.655Y-3.836
X5.755Y-3.036
X5.755Y-3.836
X5.855Y-3.036
X5.855Y-3.836
X5.86Y-2.744
X5.955Y-3.036
X5.955Y-3.836
X5.96Y-2.744
X6.055Y-3.036
X6.055Y-3.836
X6.06Y-2.744
T3
X4.9895Y-4.0927
X4.9895Y-4.1599
X4.9895Y-4.227
X4.9895Y-4.2941
X4.9895Y-4.3613
X5.615Y-4.1132
X5.615Y-4.1804
X5.615Y-4.2475
X5.615Y-4.3146
X5.615Y-4.3818
T4
X4.4131Y-1.775
X4.61Y-1.775
X4.9131Y-1.775
X5.11Y-1.775
X5.17Y-4.935
X5.3669Y-4.935
X5.4631Y-1.775
X5.66Y-1.775
X5.9631Y-1.775
X6.16Y-1.775
T5
X4.8375Y-4.5975
X4.8375Y-5.0975
X5.7Y-4.62
X5.7Y-5.12
T6
X4.095Y-1.565
X4.095Y-5.165
X6.495Y-1.565
X6.495Y-5.165
T0
M30
