G04 #@! TF.FileFunction,Copper,L2,Bot,Signal*
%FSLAX46Y46*%
G04 Gerber Fmt 4.6, Leading zero omitted, Abs format (unit mm)*
G04 Created by KiCad (PCBNEW 4.0.7) date 04/10/18 22:25:08*
%MOMM*%
%LPD*%
G01*
G04 APERTURE LIST*
%ADD10C,0.100000*%
%ADD11O,2.200000X1.400000*%
%ADD12R,2.000000X1.400000*%
%ADD13C,1.600000*%
%ADD14R,1.600000X1.600000*%
%ADD15R,1.980000X3.960000*%
%ADD16O,1.980000X3.960000*%
%ADD17R,1.700000X1.700000*%
%ADD18O,1.700000X1.700000*%
%ADD19O,1.600000X1.600000*%
%ADD20R,3.200000X3.200000*%
%ADD21O,3.200000X3.200000*%
%ADD22C,0.600000*%
%ADD23C,0.400000*%
%ADD24C,0.254000*%
G04 APERTURE END LIST*
D10*
D11*
X142621000Y-111296500D03*
X142621000Y-109591500D03*
X142621000Y-106181500D03*
D12*
X142621000Y-104476500D03*
D11*
X142621000Y-107886500D03*
D13*
X116649500Y-122745500D03*
X109549500Y-122745500D03*
D14*
X134200900Y-108178600D03*
D13*
X136700900Y-108178600D03*
D14*
X109156500Y-107124500D03*
D13*
X106656500Y-107124500D03*
D14*
X160845500Y-107251500D03*
D13*
X163345500Y-107251500D03*
D11*
X126733300Y-110775800D03*
X126733300Y-109070800D03*
X126733300Y-105660800D03*
D12*
X126733300Y-103955800D03*
D11*
X126733300Y-107365800D03*
D15*
X129794000Y-45085000D03*
D16*
X124794000Y-45085000D03*
D15*
X117094000Y-45085000D03*
D16*
X112094000Y-45085000D03*
D15*
X156464000Y-45085000D03*
D16*
X151464000Y-45085000D03*
D15*
X143764000Y-45085000D03*
D16*
X138764000Y-45085000D03*
D15*
X131318000Y-125349000D03*
D16*
X136318000Y-125349000D03*
D17*
X153797000Y-97434400D03*
D18*
X151257000Y-97434400D03*
X148717000Y-97434400D03*
X146177000Y-97434400D03*
X143637000Y-97434400D03*
X141097000Y-97434400D03*
X138557000Y-97434400D03*
X136017000Y-97434400D03*
X133477000Y-97434400D03*
X130937000Y-97434400D03*
X128397000Y-97434400D03*
X125857000Y-97434400D03*
X123317000Y-97434400D03*
X120777000Y-97434400D03*
X118237000Y-97434400D03*
X115697000Y-97434400D03*
D17*
X153797000Y-77114400D03*
D18*
X151257000Y-77114400D03*
X148717000Y-77114400D03*
X146177000Y-77114400D03*
X143637000Y-77114400D03*
X141097000Y-77114400D03*
X138557000Y-77114400D03*
X136017000Y-77114400D03*
X133477000Y-77114400D03*
X130937000Y-77114400D03*
X128397000Y-77114400D03*
X125857000Y-77114400D03*
X123317000Y-77114400D03*
X120777000Y-77114400D03*
X118237000Y-77114400D03*
X115697000Y-77114400D03*
D13*
X113525300Y-104914700D03*
D19*
X121145300Y-104914700D03*
D13*
X121094500Y-109410500D03*
D19*
X113474500Y-109410500D03*
D14*
X157099000Y-55880000D03*
D19*
X139319000Y-63500000D03*
X154559000Y-55880000D03*
X141859000Y-63500000D03*
X152019000Y-55880000D03*
X144399000Y-63500000D03*
X149479000Y-55880000D03*
X146939000Y-63500000D03*
X146939000Y-55880000D03*
X149479000Y-63500000D03*
X144399000Y-55880000D03*
X152019000Y-63500000D03*
X141859000Y-55880000D03*
X154559000Y-63500000D03*
X139319000Y-55880000D03*
X157099000Y-63500000D03*
D14*
X129159000Y-55880000D03*
D19*
X111379000Y-63500000D03*
X126619000Y-55880000D03*
X113919000Y-63500000D03*
X124079000Y-55880000D03*
X116459000Y-63500000D03*
X121539000Y-55880000D03*
X118999000Y-63500000D03*
X118999000Y-55880000D03*
X121539000Y-63500000D03*
X116459000Y-55880000D03*
X124079000Y-63500000D03*
X113919000Y-55880000D03*
X126619000Y-63500000D03*
X111379000Y-55880000D03*
X129159000Y-63500000D03*
D20*
X144780000Y-117348000D03*
D21*
X144780000Y-130048000D03*
D20*
X122872500Y-116776500D03*
D21*
X122872500Y-129476500D03*
D17*
X119481600Y-69596000D03*
D18*
X116941600Y-69596000D03*
X114401600Y-69596000D03*
D17*
X130810000Y-69697600D03*
D18*
X128270000Y-69697600D03*
X125730000Y-69697600D03*
D17*
X142087600Y-69723000D03*
D18*
X139547600Y-69723000D03*
X137007600Y-69723000D03*
D17*
X153924000Y-69697600D03*
D18*
X151384000Y-69697600D03*
X148844000Y-69697600D03*
D13*
X151955500Y-122047000D03*
X159055500Y-122047000D03*
X155321000Y-105219500D03*
D19*
X147701000Y-105219500D03*
D13*
X147669250Y-109770001D03*
D19*
X155289250Y-109770001D03*
D22*
X111379000Y-61468000D02*
X111379000Y-63500000D01*
X112776000Y-60071000D02*
X111379000Y-61468000D01*
X133477000Y-60071000D02*
X112776000Y-60071000D01*
X133477000Y-60071000D02*
X133350000Y-60071000D01*
X140462000Y-60071000D02*
X133477000Y-60071000D01*
X133350000Y-60071000D02*
X129159000Y-55880000D01*
X161290000Y-60071000D02*
X140462000Y-60071000D01*
X139319000Y-61214000D02*
X139319000Y-63500000D01*
X140462000Y-60071000D02*
X139319000Y-61214000D01*
X133477000Y-77114400D02*
X133477000Y-80899000D01*
X161417000Y-60198000D02*
X161290000Y-60071000D01*
X161290000Y-60071000D02*
X157099000Y-55880000D01*
X161417000Y-81153000D02*
X161417000Y-60198000D01*
X158369000Y-84201000D02*
X161417000Y-81153000D01*
X136779000Y-84201000D02*
X158369000Y-84201000D01*
X133477000Y-80899000D02*
X136779000Y-84201000D01*
D23*
X133477000Y-77114400D02*
X133375400Y-77114400D01*
D22*
X154559000Y-55880000D02*
X154559000Y-54737000D01*
X136017000Y-88265000D02*
X136017000Y-96520000D01*
X138938000Y-85344000D02*
X136017000Y-88265000D01*
X158877000Y-85344000D02*
X138938000Y-85344000D01*
X162306000Y-81915000D02*
X158877000Y-85344000D01*
X162306000Y-57023000D02*
X162306000Y-81915000D01*
X159004000Y-53721000D02*
X162306000Y-57023000D01*
X155575000Y-53721000D02*
X159004000Y-53721000D01*
X154559000Y-54737000D02*
X155575000Y-53721000D01*
X136017000Y-97434400D02*
X136017000Y-96520000D01*
X124333000Y-58166000D02*
X126619000Y-55880000D01*
X112395000Y-58166000D02*
X124333000Y-58166000D01*
X108966000Y-61595000D02*
X112395000Y-58166000D01*
X108966000Y-88011000D02*
X108966000Y-61595000D01*
X113157000Y-92202000D02*
X108966000Y-88011000D01*
X131699000Y-92202000D02*
X113157000Y-92202000D01*
X136017000Y-96520000D02*
X131699000Y-92202000D01*
X113919000Y-55880000D02*
X113919000Y-53467000D01*
X113919000Y-53467000D02*
X112268000Y-51816000D01*
X133477000Y-97434400D02*
X133477000Y-96647000D01*
X133477000Y-96647000D02*
X130937000Y-94107000D01*
X130937000Y-94107000D02*
X112395000Y-94107000D01*
X112395000Y-94107000D02*
X107061000Y-88773000D01*
X107061000Y-88773000D02*
X107061000Y-53340000D01*
X107061000Y-53340000D02*
X108585000Y-51816000D01*
X108585000Y-51816000D02*
X112268000Y-51816000D01*
X112268000Y-51816000D02*
X137795000Y-51816000D01*
X137795000Y-51816000D02*
X141859000Y-55880000D01*
X136017000Y-77114400D02*
X136017000Y-75692000D01*
X112268000Y-65151000D02*
X113919000Y-63500000D01*
X112268000Y-72136000D02*
X112268000Y-65151000D01*
X114300000Y-74168000D02*
X112268000Y-72136000D01*
X134493000Y-74168000D02*
X114300000Y-74168000D01*
X136017000Y-75692000D02*
X134493000Y-74168000D01*
X136017000Y-77114400D02*
X136017000Y-81407000D01*
X143764000Y-61595000D02*
X141859000Y-63500000D01*
X158877000Y-61595000D02*
X143764000Y-61595000D01*
X160147000Y-62865000D02*
X158877000Y-61595000D01*
X160147000Y-80772000D02*
X160147000Y-62865000D01*
X158115000Y-82804000D02*
X160147000Y-80772000D01*
X137414000Y-82804000D02*
X158115000Y-82804000D01*
X136017000Y-81407000D02*
X137414000Y-82804000D01*
X154559000Y-63500000D02*
X154559000Y-64643000D01*
X154559000Y-64643000D02*
X151765000Y-67437000D01*
X138557000Y-77114400D02*
X138557000Y-77470000D01*
X138557000Y-77470000D02*
X142240000Y-81153000D01*
X142240000Y-81153000D02*
X157480000Y-81153000D01*
X157480000Y-81153000D02*
X158623000Y-80010000D01*
X158623000Y-80010000D02*
X158623000Y-71120000D01*
X158623000Y-71120000D02*
X154940000Y-67437000D01*
X154940000Y-67437000D02*
X151765000Y-67437000D01*
X151765000Y-67437000D02*
X134366000Y-67437000D01*
X134366000Y-67437000D02*
X132715000Y-65786000D01*
X132715000Y-65786000D02*
X128905000Y-65786000D01*
X128905000Y-65786000D02*
X126619000Y-63500000D01*
X142087600Y-69723000D02*
X143891000Y-69723000D01*
X148717000Y-74549000D02*
X148717000Y-77114400D01*
X143891000Y-69723000D02*
X148717000Y-74549000D01*
X146177000Y-77114400D02*
X146177000Y-78994000D01*
X157226000Y-72999600D02*
X153924000Y-69697600D01*
X157226000Y-78359000D02*
X157226000Y-72999600D01*
X155702000Y-79883000D02*
X157226000Y-78359000D01*
X147066000Y-79883000D02*
X155702000Y-79883000D01*
X146177000Y-78994000D02*
X147066000Y-79883000D01*
X143637000Y-77114400D02*
X143637000Y-73787000D01*
X121894600Y-67183000D02*
X119481600Y-69596000D01*
X132207000Y-67183000D02*
X121894600Y-67183000D01*
X133350000Y-68326000D02*
X132207000Y-67183000D01*
X133350000Y-70104000D02*
X133350000Y-68326000D01*
X135382000Y-72136000D02*
X133350000Y-70104000D01*
X141986000Y-72136000D02*
X135382000Y-72136000D01*
X143637000Y-73787000D02*
X141986000Y-72136000D01*
X130810000Y-69697600D02*
X130810000Y-71374000D01*
X141097000Y-74803000D02*
X141097000Y-77114400D01*
X139573000Y-73279000D02*
X141097000Y-74803000D01*
X132715000Y-73279000D02*
X139573000Y-73279000D01*
X130810000Y-71374000D02*
X132715000Y-73279000D01*
D24*
G36*
X168200000Y-133783000D02*
X100849500Y-133783000D01*
X100849500Y-131584109D01*
X102027657Y-131584109D01*
X102329218Y-132313943D01*
X102887120Y-132872819D01*
X103616427Y-133175654D01*
X104406109Y-133176343D01*
X105135943Y-132874782D01*
X105694819Y-132316880D01*
X105997654Y-131587573D01*
X105998343Y-130797891D01*
X105696782Y-130068057D01*
X105579933Y-129951004D01*
X120688444Y-129951004D01*
X121036280Y-130750687D01*
X121663664Y-131356386D01*
X122397997Y-131660550D01*
X122745500Y-131548862D01*
X122745500Y-129603500D01*
X122999500Y-129603500D01*
X122999500Y-131548862D01*
X123347003Y-131660550D01*
X124081336Y-131356386D01*
X124708720Y-130750687D01*
X124807972Y-130522504D01*
X142595944Y-130522504D01*
X142943780Y-131322187D01*
X143571164Y-131927886D01*
X144305497Y-132232050D01*
X144653000Y-132120362D01*
X144653000Y-130175000D01*
X144907000Y-130175000D01*
X144907000Y-132120362D01*
X145254503Y-132232050D01*
X145988836Y-131927886D01*
X146344920Y-131584109D01*
X162987657Y-131584109D01*
X163289218Y-132313943D01*
X163847120Y-132872819D01*
X164576427Y-133175654D01*
X165366109Y-133176343D01*
X166095943Y-132874782D01*
X166654819Y-132316880D01*
X166957654Y-131587573D01*
X166958343Y-130797891D01*
X166656782Y-130068057D01*
X166098880Y-129509181D01*
X165369573Y-129206346D01*
X164579891Y-129205657D01*
X163850057Y-129507218D01*
X163291181Y-130065120D01*
X162988346Y-130794427D01*
X162987657Y-131584109D01*
X146344920Y-131584109D01*
X146616220Y-131322187D01*
X146964056Y-130522504D01*
X146852645Y-130175000D01*
X144907000Y-130175000D01*
X144653000Y-130175000D01*
X142707355Y-130175000D01*
X142595944Y-130522504D01*
X124807972Y-130522504D01*
X125056556Y-129951004D01*
X124945145Y-129603500D01*
X122999500Y-129603500D01*
X122745500Y-129603500D01*
X120799855Y-129603500D01*
X120688444Y-129951004D01*
X105579933Y-129951004D01*
X105203083Y-129573496D01*
X142595944Y-129573496D01*
X142707355Y-129921000D01*
X144653000Y-129921000D01*
X144653000Y-127975638D01*
X144907000Y-127975638D01*
X144907000Y-129921000D01*
X146852645Y-129921000D01*
X146964056Y-129573496D01*
X146616220Y-128773813D01*
X145988836Y-128168114D01*
X145254503Y-127863950D01*
X144907000Y-127975638D01*
X144653000Y-127975638D01*
X144305497Y-127863950D01*
X143571164Y-128168114D01*
X142943780Y-128773813D01*
X142595944Y-129573496D01*
X105203083Y-129573496D01*
X105138880Y-129509181D01*
X104409573Y-129206346D01*
X103619891Y-129205657D01*
X102890057Y-129507218D01*
X102331181Y-130065120D01*
X102028346Y-130794427D01*
X102027657Y-131584109D01*
X100849500Y-131584109D01*
X100849500Y-129001996D01*
X120688444Y-129001996D01*
X120799855Y-129349500D01*
X122745500Y-129349500D01*
X122745500Y-127404138D01*
X122999500Y-127404138D01*
X122999500Y-129349500D01*
X124945145Y-129349500D01*
X125056556Y-129001996D01*
X124708720Y-128202313D01*
X124081336Y-127596614D01*
X123347003Y-127292450D01*
X122999500Y-127404138D01*
X122745500Y-127404138D01*
X122397997Y-127292450D01*
X121663664Y-127596614D01*
X121036280Y-128202313D01*
X120688444Y-129001996D01*
X100849500Y-129001996D01*
X100849500Y-123029687D01*
X108114252Y-123029687D01*
X108332257Y-123557300D01*
X108735577Y-123961324D01*
X109262809Y-124180250D01*
X109833687Y-124180748D01*
X110361300Y-123962743D01*
X110765324Y-123559423D01*
X110984250Y-123032191D01*
X110984252Y-123029687D01*
X115214252Y-123029687D01*
X115432257Y-123557300D01*
X115835577Y-123961324D01*
X116362809Y-124180250D01*
X116933687Y-124180748D01*
X117461300Y-123962743D01*
X117865324Y-123559423D01*
X117944394Y-123369000D01*
X129680560Y-123369000D01*
X129680560Y-127329000D01*
X129724838Y-127564317D01*
X129863910Y-127780441D01*
X130076110Y-127925431D01*
X130328000Y-127976440D01*
X132308000Y-127976440D01*
X132543317Y-127932162D01*
X132759441Y-127793090D01*
X132904431Y-127580890D01*
X132955440Y-127329000D01*
X132955440Y-125476000D01*
X134693000Y-125476000D01*
X134693000Y-126466000D01*
X134865297Y-127078193D01*
X135258754Y-127577851D01*
X135813472Y-127888905D01*
X135939135Y-127919218D01*
X136191000Y-127799740D01*
X136191000Y-125476000D01*
X136445000Y-125476000D01*
X136445000Y-127799740D01*
X136696865Y-127919218D01*
X136822528Y-127888905D01*
X137377246Y-127577851D01*
X137770703Y-127078193D01*
X137943000Y-126466000D01*
X137943000Y-125476000D01*
X136445000Y-125476000D01*
X136191000Y-125476000D01*
X134693000Y-125476000D01*
X132955440Y-125476000D01*
X132955440Y-124232000D01*
X134693000Y-124232000D01*
X134693000Y-125222000D01*
X136191000Y-125222000D01*
X136191000Y-122898260D01*
X136445000Y-122898260D01*
X136445000Y-125222000D01*
X137943000Y-125222000D01*
X137943000Y-124232000D01*
X137770703Y-123619807D01*
X137377246Y-123120149D01*
X136822528Y-122809095D01*
X136696865Y-122778782D01*
X136445000Y-122898260D01*
X136191000Y-122898260D01*
X135939135Y-122778782D01*
X135813472Y-122809095D01*
X135258754Y-123120149D01*
X134865297Y-123619807D01*
X134693000Y-124232000D01*
X132955440Y-124232000D01*
X132955440Y-123369000D01*
X132911162Y-123133683D01*
X132772090Y-122917559D01*
X132559890Y-122772569D01*
X132308000Y-122721560D01*
X130328000Y-122721560D01*
X130092683Y-122765838D01*
X129876559Y-122904910D01*
X129731569Y-123117110D01*
X129680560Y-123369000D01*
X117944394Y-123369000D01*
X118084250Y-123032191D01*
X118084748Y-122461313D01*
X118030982Y-122331187D01*
X150520252Y-122331187D01*
X150738257Y-122858800D01*
X151141577Y-123262824D01*
X151668809Y-123481750D01*
X152239687Y-123482248D01*
X152767300Y-123264243D01*
X153171324Y-122860923D01*
X153390250Y-122333691D01*
X153390252Y-122331187D01*
X157620252Y-122331187D01*
X157838257Y-122858800D01*
X158241577Y-123262824D01*
X158768809Y-123481750D01*
X159339687Y-123482248D01*
X159867300Y-123264243D01*
X160271324Y-122860923D01*
X160490250Y-122333691D01*
X160490748Y-121762813D01*
X160272743Y-121235200D01*
X159869423Y-120831176D01*
X159342191Y-120612250D01*
X158771313Y-120611752D01*
X158243700Y-120829757D01*
X157839676Y-121233077D01*
X157620750Y-121760309D01*
X157620252Y-122331187D01*
X153390252Y-122331187D01*
X153390748Y-121762813D01*
X153172743Y-121235200D01*
X152769423Y-120831176D01*
X152242191Y-120612250D01*
X151671313Y-120611752D01*
X151143700Y-120829757D01*
X150739676Y-121233077D01*
X150520750Y-121760309D01*
X150520252Y-122331187D01*
X118030982Y-122331187D01*
X117866743Y-121933700D01*
X117463423Y-121529676D01*
X116936191Y-121310750D01*
X116365313Y-121310252D01*
X115837700Y-121528257D01*
X115433676Y-121931577D01*
X115214750Y-122458809D01*
X115214252Y-123029687D01*
X110984252Y-123029687D01*
X110984748Y-122461313D01*
X110766743Y-121933700D01*
X110363423Y-121529676D01*
X109836191Y-121310750D01*
X109265313Y-121310252D01*
X108737700Y-121528257D01*
X108333676Y-121931577D01*
X108114750Y-122458809D01*
X108114252Y-123029687D01*
X100849500Y-123029687D01*
X100849500Y-115176500D01*
X120625060Y-115176500D01*
X120625060Y-118376500D01*
X120669338Y-118611817D01*
X120808410Y-118827941D01*
X121020610Y-118972931D01*
X121272500Y-119023940D01*
X124472500Y-119023940D01*
X124707817Y-118979662D01*
X124923941Y-118840590D01*
X125068931Y-118628390D01*
X125119940Y-118376500D01*
X125119940Y-115748000D01*
X142532560Y-115748000D01*
X142532560Y-118948000D01*
X142576838Y-119183317D01*
X142715910Y-119399441D01*
X142928110Y-119544431D01*
X143180000Y-119595440D01*
X146380000Y-119595440D01*
X146615317Y-119551162D01*
X146831441Y-119412090D01*
X146976431Y-119199890D01*
X147027440Y-118948000D01*
X147027440Y-115748000D01*
X146983162Y-115512683D01*
X146844090Y-115296559D01*
X146631890Y-115151569D01*
X146380000Y-115100560D01*
X143180000Y-115100560D01*
X142944683Y-115144838D01*
X142728559Y-115283910D01*
X142583569Y-115496110D01*
X142532560Y-115748000D01*
X125119940Y-115748000D01*
X125119940Y-115176500D01*
X125075662Y-114941183D01*
X124936590Y-114725059D01*
X124724390Y-114580069D01*
X124472500Y-114529060D01*
X121272500Y-114529060D01*
X121037183Y-114573338D01*
X120821059Y-114712410D01*
X120676069Y-114924610D01*
X120625060Y-115176500D01*
X100849500Y-115176500D01*
X100849500Y-111109129D01*
X125040584Y-111109129D01*
X125051320Y-111169350D01*
X125299510Y-111629985D01*
X125705085Y-111960578D01*
X126206300Y-112110800D01*
X126606300Y-112110800D01*
X126606300Y-110902800D01*
X126860300Y-110902800D01*
X126860300Y-112110800D01*
X127260300Y-112110800D01*
X127761515Y-111960578D01*
X128167090Y-111629985D01*
X128167174Y-111629829D01*
X140928284Y-111629829D01*
X140939020Y-111690050D01*
X141187210Y-112150685D01*
X141592785Y-112481278D01*
X142094000Y-112631500D01*
X142494000Y-112631500D01*
X142494000Y-111423500D01*
X142748000Y-111423500D01*
X142748000Y-112631500D01*
X143148000Y-112631500D01*
X143649215Y-112481278D01*
X144054790Y-112150685D01*
X144302980Y-111690050D01*
X144313716Y-111629829D01*
X144190374Y-111423500D01*
X142748000Y-111423500D01*
X142494000Y-111423500D01*
X141051626Y-111423500D01*
X140928284Y-111629829D01*
X128167174Y-111629829D01*
X128415280Y-111169350D01*
X128426016Y-111109129D01*
X128302674Y-110902800D01*
X126860300Y-110902800D01*
X126606300Y-110902800D01*
X125163926Y-110902800D01*
X125040584Y-111109129D01*
X100849500Y-111109129D01*
X100849500Y-109759539D01*
X112082596Y-109759539D01*
X112243459Y-110147923D01*
X112619366Y-110562889D01*
X113125459Y-110802414D01*
X113347500Y-110681129D01*
X113347500Y-109537500D01*
X113601500Y-109537500D01*
X113601500Y-110681129D01*
X113823541Y-110802414D01*
X114329634Y-110562889D01*
X114705541Y-110147923D01*
X114866404Y-109759539D01*
X114830775Y-109694687D01*
X119659252Y-109694687D01*
X119877257Y-110222300D01*
X120280577Y-110626324D01*
X120807809Y-110845250D01*
X121378687Y-110845748D01*
X121906300Y-110627743D01*
X122310324Y-110224423D01*
X122529250Y-109697191D01*
X122529748Y-109126313D01*
X122506811Y-109070800D01*
X124964309Y-109070800D01*
X125065930Y-109581682D01*
X125296633Y-109926955D01*
X125051320Y-110382250D01*
X125040584Y-110442471D01*
X125163926Y-110648800D01*
X126606300Y-110648800D01*
X126606300Y-110628800D01*
X126860300Y-110628800D01*
X126860300Y-110648800D01*
X128302674Y-110648800D01*
X128426016Y-110442471D01*
X128415280Y-110382250D01*
X128169967Y-109926955D01*
X128400670Y-109581682D01*
X128502291Y-109070800D01*
X128400670Y-108559918D01*
X128169967Y-108214645D01*
X128415280Y-107759350D01*
X128426016Y-107699129D01*
X128302674Y-107492800D01*
X126860300Y-107492800D01*
X126860300Y-107512800D01*
X126606300Y-107512800D01*
X126606300Y-107492800D01*
X125163926Y-107492800D01*
X125040584Y-107699129D01*
X125051320Y-107759350D01*
X125296633Y-108214645D01*
X125065930Y-108559918D01*
X124964309Y-109070800D01*
X122506811Y-109070800D01*
X122311743Y-108598700D01*
X121908423Y-108194676D01*
X121381191Y-107975750D01*
X120810313Y-107975252D01*
X120282700Y-108193257D01*
X119878676Y-108596577D01*
X119659750Y-109123809D01*
X119659252Y-109694687D01*
X114830775Y-109694687D01*
X114744415Y-109537500D01*
X113601500Y-109537500D01*
X113347500Y-109537500D01*
X112204585Y-109537500D01*
X112082596Y-109759539D01*
X100849500Y-109759539D01*
X100849500Y-109061461D01*
X112082596Y-109061461D01*
X112204585Y-109283500D01*
X113347500Y-109283500D01*
X113347500Y-108139871D01*
X113601500Y-108139871D01*
X113601500Y-109283500D01*
X114744415Y-109283500D01*
X114866404Y-109061461D01*
X114705541Y-108673077D01*
X114329634Y-108258111D01*
X113823541Y-108018586D01*
X113601500Y-108139871D01*
X113347500Y-108139871D01*
X113125459Y-108018586D01*
X112619366Y-108258111D01*
X112243459Y-108673077D01*
X112082596Y-109061461D01*
X100849500Y-109061461D01*
X100849500Y-108132245D01*
X105828361Y-108132245D01*
X105902495Y-108378364D01*
X106439723Y-108571465D01*
X107009954Y-108544278D01*
X107410505Y-108378364D01*
X107484639Y-108132245D01*
X106656500Y-107304105D01*
X105828361Y-108132245D01*
X100849500Y-108132245D01*
X100849500Y-106907723D01*
X105209535Y-106907723D01*
X105236722Y-107477954D01*
X105402636Y-107878505D01*
X105648755Y-107952639D01*
X106476895Y-107124500D01*
X106836105Y-107124500D01*
X107664245Y-107952639D01*
X107711667Y-107938355D01*
X107753338Y-108159817D01*
X107892410Y-108375941D01*
X108104610Y-108520931D01*
X108356500Y-108571940D01*
X109956500Y-108571940D01*
X110191817Y-108527662D01*
X110407941Y-108388590D01*
X110552931Y-108176390D01*
X110603940Y-107924500D01*
X110603940Y-107378600D01*
X132753460Y-107378600D01*
X132753460Y-108978600D01*
X132797738Y-109213917D01*
X132936810Y-109430041D01*
X133149010Y-109575031D01*
X133400900Y-109626040D01*
X135000900Y-109626040D01*
X135236217Y-109581762D01*
X135452341Y-109442690D01*
X135597331Y-109230490D01*
X135606270Y-109186345D01*
X135872761Y-109186345D01*
X135946895Y-109432464D01*
X136484123Y-109625565D01*
X137054354Y-109598378D01*
X137070958Y-109591500D01*
X140852009Y-109591500D01*
X140953630Y-110102382D01*
X141184333Y-110447655D01*
X140939020Y-110902950D01*
X140928284Y-110963171D01*
X141051626Y-111169500D01*
X142494000Y-111169500D01*
X142494000Y-111149500D01*
X142748000Y-111149500D01*
X142748000Y-111169500D01*
X144190374Y-111169500D01*
X144313716Y-110963171D01*
X144302980Y-110902950D01*
X144057667Y-110447655D01*
X144288370Y-110102382D01*
X144297956Y-110054188D01*
X146234002Y-110054188D01*
X146452007Y-110581801D01*
X146855327Y-110985825D01*
X147382559Y-111204751D01*
X147953437Y-111205249D01*
X148481050Y-110987244D01*
X148885074Y-110583924D01*
X149078110Y-110119040D01*
X153897346Y-110119040D01*
X154058209Y-110507424D01*
X154434116Y-110922390D01*
X154940209Y-111161915D01*
X155162250Y-111040630D01*
X155162250Y-109897001D01*
X155416250Y-109897001D01*
X155416250Y-111040630D01*
X155638291Y-111161915D01*
X156144384Y-110922390D01*
X156520291Y-110507424D01*
X156681154Y-110119040D01*
X156559165Y-109897001D01*
X155416250Y-109897001D01*
X155162250Y-109897001D01*
X154019335Y-109897001D01*
X153897346Y-110119040D01*
X149078110Y-110119040D01*
X149104000Y-110056692D01*
X149104498Y-109485814D01*
X149077702Y-109420962D01*
X153897346Y-109420962D01*
X154019335Y-109643001D01*
X155162250Y-109643001D01*
X155162250Y-108499372D01*
X155416250Y-108499372D01*
X155416250Y-109643001D01*
X156559165Y-109643001D01*
X156681154Y-109420962D01*
X156520291Y-109032578D01*
X156144384Y-108617612D01*
X155638291Y-108378087D01*
X155416250Y-108499372D01*
X155162250Y-108499372D01*
X154940209Y-108378087D01*
X154434116Y-108617612D01*
X154058209Y-109032578D01*
X153897346Y-109420962D01*
X149077702Y-109420962D01*
X148886493Y-108958201D01*
X148483173Y-108554177D01*
X147955941Y-108335251D01*
X147385063Y-108334753D01*
X146857450Y-108552758D01*
X146453426Y-108956078D01*
X146234500Y-109483310D01*
X146234002Y-110054188D01*
X144297956Y-110054188D01*
X144389991Y-109591500D01*
X144288370Y-109080618D01*
X144057667Y-108735345D01*
X144302980Y-108280050D01*
X144313716Y-108219829D01*
X144190374Y-108013500D01*
X142748000Y-108013500D01*
X142748000Y-108033500D01*
X142494000Y-108033500D01*
X142494000Y-108013500D01*
X141051626Y-108013500D01*
X140928284Y-108219829D01*
X140939020Y-108280050D01*
X141184333Y-108735345D01*
X140953630Y-109080618D01*
X140852009Y-109591500D01*
X137070958Y-109591500D01*
X137454905Y-109432464D01*
X137529039Y-109186345D01*
X136700900Y-108358205D01*
X135872761Y-109186345D01*
X135606270Y-109186345D01*
X135645546Y-108992399D01*
X135693155Y-109006739D01*
X136521295Y-108178600D01*
X136880505Y-108178600D01*
X137708645Y-109006739D01*
X137954764Y-108932605D01*
X138147865Y-108395377D01*
X138120678Y-107825146D01*
X137954764Y-107424595D01*
X137708645Y-107350461D01*
X136880505Y-108178600D01*
X136521295Y-108178600D01*
X135693155Y-107350461D01*
X135645733Y-107364745D01*
X135609251Y-107170855D01*
X135872761Y-107170855D01*
X136700900Y-107998995D01*
X137529039Y-107170855D01*
X137454905Y-106924736D01*
X136917677Y-106731635D01*
X136347446Y-106758822D01*
X135946895Y-106924736D01*
X135872761Y-107170855D01*
X135609251Y-107170855D01*
X135604062Y-107143283D01*
X135464990Y-106927159D01*
X135252790Y-106782169D01*
X135000900Y-106731160D01*
X133400900Y-106731160D01*
X133165583Y-106775438D01*
X132949459Y-106914510D01*
X132804469Y-107126710D01*
X132753460Y-107378600D01*
X110603940Y-107378600D01*
X110603940Y-106324500D01*
X110559662Y-106089183D01*
X110420590Y-105873059D01*
X110208390Y-105728069D01*
X109956500Y-105677060D01*
X108356500Y-105677060D01*
X108121183Y-105721338D01*
X107905059Y-105860410D01*
X107760069Y-106072610D01*
X107711854Y-106310701D01*
X107664245Y-106296361D01*
X106836105Y-107124500D01*
X106476895Y-107124500D01*
X105648755Y-106296361D01*
X105402636Y-106370495D01*
X105209535Y-106907723D01*
X100849500Y-106907723D01*
X100849500Y-106116755D01*
X105828361Y-106116755D01*
X106656500Y-106944895D01*
X107484639Y-106116755D01*
X107410505Y-105870636D01*
X106873277Y-105677535D01*
X106303046Y-105704722D01*
X105902495Y-105870636D01*
X105828361Y-106116755D01*
X100849500Y-106116755D01*
X100849500Y-105198887D01*
X112090052Y-105198887D01*
X112308057Y-105726500D01*
X112711377Y-106130524D01*
X113238609Y-106349450D01*
X113809487Y-106349948D01*
X114337100Y-106131943D01*
X114741124Y-105728623D01*
X114960050Y-105201391D01*
X114960300Y-104914700D01*
X119682187Y-104914700D01*
X119791420Y-105463851D01*
X120102489Y-105929398D01*
X120568036Y-106240467D01*
X121117187Y-106349700D01*
X121173413Y-106349700D01*
X121722564Y-106240467D01*
X122188111Y-105929398D01*
X122367582Y-105660800D01*
X124964309Y-105660800D01*
X125065930Y-106171682D01*
X125296633Y-106516955D01*
X125051320Y-106972250D01*
X125040584Y-107032471D01*
X125163926Y-107238800D01*
X126606300Y-107238800D01*
X126606300Y-107218800D01*
X126860300Y-107218800D01*
X126860300Y-107238800D01*
X128302674Y-107238800D01*
X128426016Y-107032471D01*
X128415280Y-106972250D01*
X128169967Y-106516955D01*
X128394109Y-106181500D01*
X140852009Y-106181500D01*
X140953630Y-106692382D01*
X141184333Y-107037655D01*
X140939020Y-107492950D01*
X140928284Y-107553171D01*
X141051626Y-107759500D01*
X142494000Y-107759500D01*
X142494000Y-107739500D01*
X142748000Y-107739500D01*
X142748000Y-107759500D01*
X144190374Y-107759500D01*
X144313716Y-107553171D01*
X144302980Y-107492950D01*
X144057667Y-107037655D01*
X144288370Y-106692382D01*
X144389991Y-106181500D01*
X144288370Y-105670618D01*
X144171467Y-105495660D01*
X144217431Y-105428390D01*
X144259732Y-105219500D01*
X146237887Y-105219500D01*
X146347120Y-105768651D01*
X146658189Y-106234198D01*
X147123736Y-106545267D01*
X147672887Y-106654500D01*
X147729113Y-106654500D01*
X148278264Y-106545267D01*
X148743811Y-106234198D01*
X149054880Y-105768651D01*
X149107584Y-105503687D01*
X153885752Y-105503687D01*
X154103757Y-106031300D01*
X154507077Y-106435324D01*
X155034309Y-106654250D01*
X155605187Y-106654748D01*
X156097085Y-106451500D01*
X159398060Y-106451500D01*
X159398060Y-108051500D01*
X159442338Y-108286817D01*
X159581410Y-108502941D01*
X159793610Y-108647931D01*
X160045500Y-108698940D01*
X161645500Y-108698940D01*
X161880817Y-108654662D01*
X162096941Y-108515590D01*
X162241931Y-108303390D01*
X162250870Y-108259245D01*
X162517361Y-108259245D01*
X162591495Y-108505364D01*
X163128723Y-108698465D01*
X163698954Y-108671278D01*
X164099505Y-108505364D01*
X164173639Y-108259245D01*
X163345500Y-107431105D01*
X162517361Y-108259245D01*
X162250870Y-108259245D01*
X162290146Y-108065299D01*
X162337755Y-108079639D01*
X163165895Y-107251500D01*
X163525105Y-107251500D01*
X164353245Y-108079639D01*
X164599364Y-108005505D01*
X164792465Y-107468277D01*
X164765278Y-106898046D01*
X164599364Y-106497495D01*
X164353245Y-106423361D01*
X163525105Y-107251500D01*
X163165895Y-107251500D01*
X162337755Y-106423361D01*
X162290333Y-106437645D01*
X162253851Y-106243755D01*
X162517361Y-106243755D01*
X163345500Y-107071895D01*
X164173639Y-106243755D01*
X164099505Y-105997636D01*
X163562277Y-105804535D01*
X162992046Y-105831722D01*
X162591495Y-105997636D01*
X162517361Y-106243755D01*
X162253851Y-106243755D01*
X162248662Y-106216183D01*
X162109590Y-106000059D01*
X161897390Y-105855069D01*
X161645500Y-105804060D01*
X160045500Y-105804060D01*
X159810183Y-105848338D01*
X159594059Y-105987410D01*
X159449069Y-106199610D01*
X159398060Y-106451500D01*
X156097085Y-106451500D01*
X156132800Y-106436743D01*
X156536824Y-106033423D01*
X156755750Y-105506191D01*
X156756248Y-104935313D01*
X156538243Y-104407700D01*
X156134923Y-104003676D01*
X155607691Y-103784750D01*
X155036813Y-103784252D01*
X154509200Y-104002257D01*
X154105176Y-104405577D01*
X153886250Y-104932809D01*
X153885752Y-105503687D01*
X149107584Y-105503687D01*
X149164113Y-105219500D01*
X149054880Y-104670349D01*
X148743811Y-104204802D01*
X148278264Y-103893733D01*
X147729113Y-103784500D01*
X147672887Y-103784500D01*
X147123736Y-103893733D01*
X146658189Y-104204802D01*
X146347120Y-104670349D01*
X146237887Y-105219500D01*
X144259732Y-105219500D01*
X144268440Y-105176500D01*
X144268440Y-103776500D01*
X144224162Y-103541183D01*
X144085090Y-103325059D01*
X143872890Y-103180069D01*
X143621000Y-103129060D01*
X141621000Y-103129060D01*
X141385683Y-103173338D01*
X141169559Y-103312410D01*
X141024569Y-103524610D01*
X140973560Y-103776500D01*
X140973560Y-105176500D01*
X141017838Y-105411817D01*
X141071173Y-105494702D01*
X140953630Y-105670618D01*
X140852009Y-106181500D01*
X128394109Y-106181500D01*
X128400670Y-106171682D01*
X128502291Y-105660800D01*
X128400670Y-105149918D01*
X128283767Y-104974960D01*
X128329731Y-104907690D01*
X128380740Y-104655800D01*
X128380740Y-103255800D01*
X128336462Y-103020483D01*
X128197390Y-102804359D01*
X127985190Y-102659369D01*
X127733300Y-102608360D01*
X125733300Y-102608360D01*
X125497983Y-102652638D01*
X125281859Y-102791710D01*
X125136869Y-103003910D01*
X125085860Y-103255800D01*
X125085860Y-104655800D01*
X125130138Y-104891117D01*
X125183473Y-104974002D01*
X125065930Y-105149918D01*
X124964309Y-105660800D01*
X122367582Y-105660800D01*
X122499180Y-105463851D01*
X122608413Y-104914700D01*
X122499180Y-104365549D01*
X122188111Y-103900002D01*
X121722564Y-103588933D01*
X121173413Y-103479700D01*
X121117187Y-103479700D01*
X120568036Y-103588933D01*
X120102489Y-103900002D01*
X119791420Y-104365549D01*
X119682187Y-104914700D01*
X114960300Y-104914700D01*
X114960548Y-104630513D01*
X114742543Y-104102900D01*
X114339223Y-103698876D01*
X113811991Y-103479950D01*
X113241113Y-103479452D01*
X112713500Y-103697457D01*
X112309476Y-104100777D01*
X112090550Y-104628009D01*
X112090052Y-105198887D01*
X100849500Y-105198887D01*
X100849500Y-97405307D01*
X114212000Y-97405307D01*
X114212000Y-97463493D01*
X114325039Y-98031778D01*
X114646946Y-98513547D01*
X115128715Y-98835454D01*
X115697000Y-98948493D01*
X116265285Y-98835454D01*
X116747054Y-98513547D01*
X116967000Y-98184374D01*
X117186946Y-98513547D01*
X117668715Y-98835454D01*
X118237000Y-98948493D01*
X118805285Y-98835454D01*
X119287054Y-98513547D01*
X119507000Y-98184374D01*
X119726946Y-98513547D01*
X120208715Y-98835454D01*
X120777000Y-98948493D01*
X121345285Y-98835454D01*
X121827054Y-98513547D01*
X122054702Y-98172847D01*
X122121817Y-98315758D01*
X122550076Y-98706045D01*
X122960110Y-98875876D01*
X123190000Y-98754555D01*
X123190000Y-97561400D01*
X123170000Y-97561400D01*
X123170000Y-97307400D01*
X123190000Y-97307400D01*
X123190000Y-96114245D01*
X122960110Y-95992924D01*
X122550076Y-96162755D01*
X122121817Y-96553042D01*
X122054702Y-96695953D01*
X121827054Y-96355253D01*
X121345285Y-96033346D01*
X120777000Y-95920307D01*
X120208715Y-96033346D01*
X119726946Y-96355253D01*
X119507000Y-96684426D01*
X119287054Y-96355253D01*
X118805285Y-96033346D01*
X118237000Y-95920307D01*
X117668715Y-96033346D01*
X117186946Y-96355253D01*
X116967000Y-96684426D01*
X116747054Y-96355253D01*
X116265285Y-96033346D01*
X115697000Y-95920307D01*
X115128715Y-96033346D01*
X114646946Y-96355253D01*
X114325039Y-96837022D01*
X114212000Y-97405307D01*
X100849500Y-97405307D01*
X100849500Y-53340000D01*
X106126000Y-53340000D01*
X106126000Y-88773000D01*
X106197173Y-89130809D01*
X106399855Y-89434145D01*
X111733855Y-94768145D01*
X112037191Y-94970827D01*
X112395000Y-95042000D01*
X130549710Y-95042000D01*
X131613086Y-96105376D01*
X131505285Y-96033346D01*
X130937000Y-95920307D01*
X130368715Y-96033346D01*
X129886946Y-96355253D01*
X129667000Y-96684426D01*
X129447054Y-96355253D01*
X128965285Y-96033346D01*
X128397000Y-95920307D01*
X127828715Y-96033346D01*
X127346946Y-96355253D01*
X127127000Y-96684426D01*
X126907054Y-96355253D01*
X126425285Y-96033346D01*
X125857000Y-95920307D01*
X125288715Y-96033346D01*
X124806946Y-96355253D01*
X124579298Y-96695953D01*
X124512183Y-96553042D01*
X124083924Y-96162755D01*
X123673890Y-95992924D01*
X123444000Y-96114245D01*
X123444000Y-97307400D01*
X123464000Y-97307400D01*
X123464000Y-97561400D01*
X123444000Y-97561400D01*
X123444000Y-98754555D01*
X123673890Y-98875876D01*
X124083924Y-98706045D01*
X124512183Y-98315758D01*
X124579298Y-98172847D01*
X124806946Y-98513547D01*
X125288715Y-98835454D01*
X125857000Y-98948493D01*
X126425285Y-98835454D01*
X126907054Y-98513547D01*
X127127000Y-98184374D01*
X127346946Y-98513547D01*
X127828715Y-98835454D01*
X128397000Y-98948493D01*
X128965285Y-98835454D01*
X129447054Y-98513547D01*
X129667000Y-98184374D01*
X129886946Y-98513547D01*
X130368715Y-98835454D01*
X130937000Y-98948493D01*
X131505285Y-98835454D01*
X131987054Y-98513547D01*
X132207000Y-98184374D01*
X132426946Y-98513547D01*
X132908715Y-98835454D01*
X133477000Y-98948493D01*
X134045285Y-98835454D01*
X134527054Y-98513547D01*
X134747000Y-98184374D01*
X134966946Y-98513547D01*
X135448715Y-98835454D01*
X136017000Y-98948493D01*
X136585285Y-98835454D01*
X137067054Y-98513547D01*
X137287000Y-98184374D01*
X137506946Y-98513547D01*
X137988715Y-98835454D01*
X138557000Y-98948493D01*
X139125285Y-98835454D01*
X139607054Y-98513547D01*
X139827000Y-98184374D01*
X140046946Y-98513547D01*
X140528715Y-98835454D01*
X141097000Y-98948493D01*
X141665285Y-98835454D01*
X142147054Y-98513547D01*
X142367000Y-98184374D01*
X142586946Y-98513547D01*
X143068715Y-98835454D01*
X143637000Y-98948493D01*
X144205285Y-98835454D01*
X144687054Y-98513547D01*
X144907000Y-98184374D01*
X145126946Y-98513547D01*
X145608715Y-98835454D01*
X146177000Y-98948493D01*
X146745285Y-98835454D01*
X147227054Y-98513547D01*
X147447000Y-98184374D01*
X147666946Y-98513547D01*
X148148715Y-98835454D01*
X148717000Y-98948493D01*
X149285285Y-98835454D01*
X149767054Y-98513547D01*
X149987000Y-98184374D01*
X150206946Y-98513547D01*
X150688715Y-98835454D01*
X151257000Y-98948493D01*
X151825285Y-98835454D01*
X152307054Y-98513547D01*
X152334850Y-98471948D01*
X152343838Y-98519717D01*
X152482910Y-98735841D01*
X152695110Y-98880831D01*
X152947000Y-98931840D01*
X154647000Y-98931840D01*
X154882317Y-98887562D01*
X155098441Y-98748490D01*
X155243431Y-98536290D01*
X155294440Y-98284400D01*
X155294440Y-96584400D01*
X155250162Y-96349083D01*
X155111090Y-96132959D01*
X154898890Y-95987969D01*
X154647000Y-95936960D01*
X152947000Y-95936960D01*
X152711683Y-95981238D01*
X152495559Y-96120310D01*
X152350569Y-96332510D01*
X152336914Y-96399941D01*
X152307054Y-96355253D01*
X151825285Y-96033346D01*
X151257000Y-95920307D01*
X150688715Y-96033346D01*
X150206946Y-96355253D01*
X149987000Y-96684426D01*
X149767054Y-96355253D01*
X149285285Y-96033346D01*
X148717000Y-95920307D01*
X148148715Y-96033346D01*
X147666946Y-96355253D01*
X147447000Y-96684426D01*
X147227054Y-96355253D01*
X146745285Y-96033346D01*
X146177000Y-95920307D01*
X145608715Y-96033346D01*
X145126946Y-96355253D01*
X144907000Y-96684426D01*
X144687054Y-96355253D01*
X144205285Y-96033346D01*
X143637000Y-95920307D01*
X143068715Y-96033346D01*
X142586946Y-96355253D01*
X142367000Y-96684426D01*
X142147054Y-96355253D01*
X141665285Y-96033346D01*
X141097000Y-95920307D01*
X140528715Y-96033346D01*
X140046946Y-96355253D01*
X139827000Y-96684426D01*
X139607054Y-96355253D01*
X139125285Y-96033346D01*
X138557000Y-95920307D01*
X137988715Y-96033346D01*
X137506946Y-96355253D01*
X137287000Y-96684426D01*
X137067054Y-96355253D01*
X136952000Y-96278377D01*
X136952000Y-88652290D01*
X139325290Y-86279000D01*
X158877000Y-86279000D01*
X159234809Y-86207827D01*
X159538145Y-86005145D01*
X162967145Y-82576145D01*
X163169827Y-82272809D01*
X163241000Y-81915000D01*
X163241000Y-57023000D01*
X163169827Y-56665191D01*
X162967145Y-56361855D01*
X159665145Y-53059855D01*
X159361809Y-52857173D01*
X159004000Y-52786000D01*
X155575000Y-52786000D01*
X155217191Y-52857173D01*
X154913855Y-53059855D01*
X153897855Y-54075855D01*
X153695173Y-54379191D01*
X153624000Y-54737000D01*
X153624000Y-54783936D01*
X153544302Y-54837189D01*
X153289000Y-55219275D01*
X153033698Y-54837189D01*
X152568151Y-54526120D01*
X152019000Y-54416887D01*
X151469849Y-54526120D01*
X151004302Y-54837189D01*
X150734014Y-55241703D01*
X150631389Y-55024866D01*
X150216423Y-54648959D01*
X149828039Y-54488096D01*
X149606000Y-54610085D01*
X149606000Y-55753000D01*
X149626000Y-55753000D01*
X149626000Y-56007000D01*
X149606000Y-56007000D01*
X149606000Y-57149915D01*
X149828039Y-57271904D01*
X150216423Y-57111041D01*
X150631389Y-56735134D01*
X150734014Y-56518297D01*
X151004302Y-56922811D01*
X151469849Y-57233880D01*
X152019000Y-57343113D01*
X152568151Y-57233880D01*
X153033698Y-56922811D01*
X153289000Y-56540725D01*
X153544302Y-56922811D01*
X154009849Y-57233880D01*
X154559000Y-57343113D01*
X155108151Y-57233880D01*
X155573698Y-56922811D01*
X155670101Y-56778535D01*
X155695838Y-56915317D01*
X155834910Y-57131441D01*
X156047110Y-57276431D01*
X156299000Y-57327440D01*
X157224150Y-57327440D01*
X159032710Y-59136000D01*
X133737290Y-59136000D01*
X130606440Y-56005150D01*
X130606440Y-55080000D01*
X130562162Y-54844683D01*
X130423090Y-54628559D01*
X130210890Y-54483569D01*
X129959000Y-54432560D01*
X128359000Y-54432560D01*
X128123683Y-54476838D01*
X127907559Y-54615910D01*
X127762569Y-54828110D01*
X127731185Y-54983089D01*
X127633698Y-54837189D01*
X127168151Y-54526120D01*
X126619000Y-54416887D01*
X126069849Y-54526120D01*
X125604302Y-54837189D01*
X125349000Y-55219275D01*
X125093698Y-54837189D01*
X124628151Y-54526120D01*
X124079000Y-54416887D01*
X123529849Y-54526120D01*
X123064302Y-54837189D01*
X122794014Y-55241703D01*
X122691389Y-55024866D01*
X122276423Y-54648959D01*
X121888039Y-54488096D01*
X121666000Y-54610085D01*
X121666000Y-55753000D01*
X121686000Y-55753000D01*
X121686000Y-56007000D01*
X121666000Y-56007000D01*
X121666000Y-56027000D01*
X121412000Y-56027000D01*
X121412000Y-56007000D01*
X119126000Y-56007000D01*
X119126000Y-56027000D01*
X118872000Y-56027000D01*
X118872000Y-56007000D01*
X118852000Y-56007000D01*
X118852000Y-55753000D01*
X118872000Y-55753000D01*
X118872000Y-54610085D01*
X119126000Y-54610085D01*
X119126000Y-55753000D01*
X121412000Y-55753000D01*
X121412000Y-54610085D01*
X121189961Y-54488096D01*
X120801577Y-54648959D01*
X120386611Y-55024866D01*
X120269000Y-55273367D01*
X120151389Y-55024866D01*
X119736423Y-54648959D01*
X119348039Y-54488096D01*
X119126000Y-54610085D01*
X118872000Y-54610085D01*
X118649961Y-54488096D01*
X118261577Y-54648959D01*
X117846611Y-55024866D01*
X117743986Y-55241703D01*
X117473698Y-54837189D01*
X117008151Y-54526120D01*
X116459000Y-54416887D01*
X115909849Y-54526120D01*
X115444302Y-54837189D01*
X115189000Y-55219275D01*
X114933698Y-54837189D01*
X114854000Y-54783936D01*
X114854000Y-53467005D01*
X114854001Y-53467000D01*
X114782827Y-53109192D01*
X114782827Y-53109191D01*
X114580145Y-52805855D01*
X114525290Y-52751000D01*
X137407710Y-52751000D01*
X139114312Y-54457602D01*
X138769849Y-54526120D01*
X138304302Y-54837189D01*
X137993233Y-55302736D01*
X137884000Y-55851887D01*
X137884000Y-55908113D01*
X137993233Y-56457264D01*
X138304302Y-56922811D01*
X138769849Y-57233880D01*
X139319000Y-57343113D01*
X139868151Y-57233880D01*
X140333698Y-56922811D01*
X140589000Y-56540725D01*
X140844302Y-56922811D01*
X141309849Y-57233880D01*
X141859000Y-57343113D01*
X142408151Y-57233880D01*
X142873698Y-56922811D01*
X143129000Y-56540725D01*
X143384302Y-56922811D01*
X143849849Y-57233880D01*
X144399000Y-57343113D01*
X144948151Y-57233880D01*
X145413698Y-56922811D01*
X145683986Y-56518297D01*
X145786611Y-56735134D01*
X146201577Y-57111041D01*
X146589961Y-57271904D01*
X146812000Y-57149915D01*
X146812000Y-56007000D01*
X147066000Y-56007000D01*
X147066000Y-57149915D01*
X147288039Y-57271904D01*
X147676423Y-57111041D01*
X148091389Y-56735134D01*
X148209000Y-56486633D01*
X148326611Y-56735134D01*
X148741577Y-57111041D01*
X149129961Y-57271904D01*
X149352000Y-57149915D01*
X149352000Y-56007000D01*
X147066000Y-56007000D01*
X146812000Y-56007000D01*
X146792000Y-56007000D01*
X146792000Y-55753000D01*
X146812000Y-55753000D01*
X146812000Y-54610085D01*
X147066000Y-54610085D01*
X147066000Y-55753000D01*
X149352000Y-55753000D01*
X149352000Y-54610085D01*
X149129961Y-54488096D01*
X148741577Y-54648959D01*
X148326611Y-55024866D01*
X148209000Y-55273367D01*
X148091389Y-55024866D01*
X147676423Y-54648959D01*
X147288039Y-54488096D01*
X147066000Y-54610085D01*
X146812000Y-54610085D01*
X146589961Y-54488096D01*
X146201577Y-54648959D01*
X145786611Y-55024866D01*
X145683986Y-55241703D01*
X145413698Y-54837189D01*
X144948151Y-54526120D01*
X144399000Y-54416887D01*
X143849849Y-54526120D01*
X143384302Y-54837189D01*
X143129000Y-55219275D01*
X142873698Y-54837189D01*
X142408151Y-54526120D01*
X141859000Y-54416887D01*
X141741541Y-54440251D01*
X138456145Y-51154855D01*
X138152809Y-50952173D01*
X137795000Y-50881000D01*
X108585000Y-50881000D01*
X108227191Y-50952173D01*
X107923855Y-51154855D01*
X106399855Y-52678855D01*
X106197173Y-52982191D01*
X106126000Y-53340000D01*
X100849500Y-53340000D01*
X100849500Y-44043769D01*
X110469000Y-44043769D01*
X110469000Y-46126231D01*
X110592696Y-46748092D01*
X110944951Y-47275280D01*
X111472139Y-47627535D01*
X112094000Y-47751231D01*
X112715861Y-47627535D01*
X113243049Y-47275280D01*
X113595304Y-46748092D01*
X113719000Y-46126231D01*
X113719000Y-44043769D01*
X113595304Y-43421908D01*
X113383554Y-43105000D01*
X115456560Y-43105000D01*
X115456560Y-47065000D01*
X115500838Y-47300317D01*
X115639910Y-47516441D01*
X115852110Y-47661431D01*
X116104000Y-47712440D01*
X118084000Y-47712440D01*
X118319317Y-47668162D01*
X118535441Y-47529090D01*
X118680431Y-47316890D01*
X118731440Y-47065000D01*
X118731440Y-44043769D01*
X123169000Y-44043769D01*
X123169000Y-46126231D01*
X123292696Y-46748092D01*
X123644951Y-47275280D01*
X124172139Y-47627535D01*
X124794000Y-47751231D01*
X125415861Y-47627535D01*
X125943049Y-47275280D01*
X126295304Y-46748092D01*
X126419000Y-46126231D01*
X126419000Y-44043769D01*
X126295304Y-43421908D01*
X126083554Y-43105000D01*
X128156560Y-43105000D01*
X128156560Y-47065000D01*
X128200838Y-47300317D01*
X128339910Y-47516441D01*
X128552110Y-47661431D01*
X128804000Y-47712440D01*
X130784000Y-47712440D01*
X131019317Y-47668162D01*
X131235441Y-47529090D01*
X131380431Y-47316890D01*
X131431440Y-47065000D01*
X131431440Y-44043769D01*
X137139000Y-44043769D01*
X137139000Y-46126231D01*
X137262696Y-46748092D01*
X137614951Y-47275280D01*
X138142139Y-47627535D01*
X138764000Y-47751231D01*
X139385861Y-47627535D01*
X139913049Y-47275280D01*
X140265304Y-46748092D01*
X140389000Y-46126231D01*
X140389000Y-44043769D01*
X140265304Y-43421908D01*
X140053554Y-43105000D01*
X142126560Y-43105000D01*
X142126560Y-47065000D01*
X142170838Y-47300317D01*
X142309910Y-47516441D01*
X142522110Y-47661431D01*
X142774000Y-47712440D01*
X144754000Y-47712440D01*
X144989317Y-47668162D01*
X145205441Y-47529090D01*
X145350431Y-47316890D01*
X145401440Y-47065000D01*
X145401440Y-44043769D01*
X149839000Y-44043769D01*
X149839000Y-46126231D01*
X149962696Y-46748092D01*
X150314951Y-47275280D01*
X150842139Y-47627535D01*
X151464000Y-47751231D01*
X152085861Y-47627535D01*
X152613049Y-47275280D01*
X152965304Y-46748092D01*
X153089000Y-46126231D01*
X153089000Y-44043769D01*
X152965304Y-43421908D01*
X152753554Y-43105000D01*
X154826560Y-43105000D01*
X154826560Y-47065000D01*
X154870838Y-47300317D01*
X155009910Y-47516441D01*
X155222110Y-47661431D01*
X155474000Y-47712440D01*
X157454000Y-47712440D01*
X157689317Y-47668162D01*
X157905441Y-47529090D01*
X158050431Y-47316890D01*
X158101440Y-47065000D01*
X158101440Y-43105000D01*
X158057162Y-42869683D01*
X157918090Y-42653559D01*
X157705890Y-42508569D01*
X157454000Y-42457560D01*
X155474000Y-42457560D01*
X155238683Y-42501838D01*
X155022559Y-42640910D01*
X154877569Y-42853110D01*
X154826560Y-43105000D01*
X152753554Y-43105000D01*
X152613049Y-42894720D01*
X152085861Y-42542465D01*
X151464000Y-42418769D01*
X150842139Y-42542465D01*
X150314951Y-42894720D01*
X149962696Y-43421908D01*
X149839000Y-44043769D01*
X145401440Y-44043769D01*
X145401440Y-43105000D01*
X145357162Y-42869683D01*
X145218090Y-42653559D01*
X145005890Y-42508569D01*
X144754000Y-42457560D01*
X142774000Y-42457560D01*
X142538683Y-42501838D01*
X142322559Y-42640910D01*
X142177569Y-42853110D01*
X142126560Y-43105000D01*
X140053554Y-43105000D01*
X139913049Y-42894720D01*
X139385861Y-42542465D01*
X138764000Y-42418769D01*
X138142139Y-42542465D01*
X137614951Y-42894720D01*
X137262696Y-43421908D01*
X137139000Y-44043769D01*
X131431440Y-44043769D01*
X131431440Y-43105000D01*
X131387162Y-42869683D01*
X131248090Y-42653559D01*
X131035890Y-42508569D01*
X130784000Y-42457560D01*
X128804000Y-42457560D01*
X128568683Y-42501838D01*
X128352559Y-42640910D01*
X128207569Y-42853110D01*
X128156560Y-43105000D01*
X126083554Y-43105000D01*
X125943049Y-42894720D01*
X125415861Y-42542465D01*
X124794000Y-42418769D01*
X124172139Y-42542465D01*
X123644951Y-42894720D01*
X123292696Y-43421908D01*
X123169000Y-44043769D01*
X118731440Y-44043769D01*
X118731440Y-43105000D01*
X118687162Y-42869683D01*
X118548090Y-42653559D01*
X118335890Y-42508569D01*
X118084000Y-42457560D01*
X116104000Y-42457560D01*
X115868683Y-42501838D01*
X115652559Y-42640910D01*
X115507569Y-42853110D01*
X115456560Y-43105000D01*
X113383554Y-43105000D01*
X113243049Y-42894720D01*
X112715861Y-42542465D01*
X112094000Y-42418769D01*
X111472139Y-42542465D01*
X110944951Y-42894720D01*
X110592696Y-43421908D01*
X110469000Y-44043769D01*
X100849500Y-44043769D01*
X100849500Y-40144109D01*
X102027657Y-40144109D01*
X102329218Y-40873943D01*
X102887120Y-41432819D01*
X103616427Y-41735654D01*
X104406109Y-41736343D01*
X105135943Y-41434782D01*
X105694819Y-40876880D01*
X105997654Y-40147573D01*
X105997657Y-40144109D01*
X162987657Y-40144109D01*
X163289218Y-40873943D01*
X163847120Y-41432819D01*
X164576427Y-41735654D01*
X165366109Y-41736343D01*
X166095943Y-41434782D01*
X166654819Y-40876880D01*
X166957654Y-40147573D01*
X166958343Y-39357891D01*
X166656782Y-38628057D01*
X166098880Y-38069181D01*
X165369573Y-37766346D01*
X164579891Y-37765657D01*
X163850057Y-38067218D01*
X163291181Y-38625120D01*
X162988346Y-39354427D01*
X162987657Y-40144109D01*
X105997657Y-40144109D01*
X105998343Y-39357891D01*
X105696782Y-38628057D01*
X105138880Y-38069181D01*
X104409573Y-37766346D01*
X103619891Y-37765657D01*
X102890057Y-38067218D01*
X102331181Y-38625120D01*
X102028346Y-39354427D01*
X102027657Y-40144109D01*
X100849500Y-40144109D01*
X100849500Y-36651000D01*
X168200000Y-36651000D01*
X168200000Y-133783000D01*
X168200000Y-133783000D01*
G37*
X168200000Y-133783000D02*
X100849500Y-133783000D01*
X100849500Y-131584109D01*
X102027657Y-131584109D01*
X102329218Y-132313943D01*
X102887120Y-132872819D01*
X103616427Y-133175654D01*
X104406109Y-133176343D01*
X105135943Y-132874782D01*
X105694819Y-132316880D01*
X105997654Y-131587573D01*
X105998343Y-130797891D01*
X105696782Y-130068057D01*
X105579933Y-129951004D01*
X120688444Y-129951004D01*
X121036280Y-130750687D01*
X121663664Y-131356386D01*
X122397997Y-131660550D01*
X122745500Y-131548862D01*
X122745500Y-129603500D01*
X122999500Y-129603500D01*
X122999500Y-131548862D01*
X123347003Y-131660550D01*
X124081336Y-131356386D01*
X124708720Y-130750687D01*
X124807972Y-130522504D01*
X142595944Y-130522504D01*
X142943780Y-131322187D01*
X143571164Y-131927886D01*
X144305497Y-132232050D01*
X144653000Y-132120362D01*
X144653000Y-130175000D01*
X144907000Y-130175000D01*
X144907000Y-132120362D01*
X145254503Y-132232050D01*
X145988836Y-131927886D01*
X146344920Y-131584109D01*
X162987657Y-131584109D01*
X163289218Y-132313943D01*
X163847120Y-132872819D01*
X164576427Y-133175654D01*
X165366109Y-133176343D01*
X166095943Y-132874782D01*
X166654819Y-132316880D01*
X166957654Y-131587573D01*
X166958343Y-130797891D01*
X166656782Y-130068057D01*
X166098880Y-129509181D01*
X165369573Y-129206346D01*
X164579891Y-129205657D01*
X163850057Y-129507218D01*
X163291181Y-130065120D01*
X162988346Y-130794427D01*
X162987657Y-131584109D01*
X146344920Y-131584109D01*
X146616220Y-131322187D01*
X146964056Y-130522504D01*
X146852645Y-130175000D01*
X144907000Y-130175000D01*
X144653000Y-130175000D01*
X142707355Y-130175000D01*
X142595944Y-130522504D01*
X124807972Y-130522504D01*
X125056556Y-129951004D01*
X124945145Y-129603500D01*
X122999500Y-129603500D01*
X122745500Y-129603500D01*
X120799855Y-129603500D01*
X120688444Y-129951004D01*
X105579933Y-129951004D01*
X105203083Y-129573496D01*
X142595944Y-129573496D01*
X142707355Y-129921000D01*
X144653000Y-129921000D01*
X144653000Y-127975638D01*
X144907000Y-127975638D01*
X144907000Y-129921000D01*
X146852645Y-129921000D01*
X146964056Y-129573496D01*
X146616220Y-128773813D01*
X145988836Y-128168114D01*
X145254503Y-127863950D01*
X144907000Y-127975638D01*
X144653000Y-127975638D01*
X144305497Y-127863950D01*
X143571164Y-128168114D01*
X142943780Y-128773813D01*
X142595944Y-129573496D01*
X105203083Y-129573496D01*
X105138880Y-129509181D01*
X104409573Y-129206346D01*
X103619891Y-129205657D01*
X102890057Y-129507218D01*
X102331181Y-130065120D01*
X102028346Y-130794427D01*
X102027657Y-131584109D01*
X100849500Y-131584109D01*
X100849500Y-129001996D01*
X120688444Y-129001996D01*
X120799855Y-129349500D01*
X122745500Y-129349500D01*
X122745500Y-127404138D01*
X122999500Y-127404138D01*
X122999500Y-129349500D01*
X124945145Y-129349500D01*
X125056556Y-129001996D01*
X124708720Y-128202313D01*
X124081336Y-127596614D01*
X123347003Y-127292450D01*
X122999500Y-127404138D01*
X122745500Y-127404138D01*
X122397997Y-127292450D01*
X121663664Y-127596614D01*
X121036280Y-128202313D01*
X120688444Y-129001996D01*
X100849500Y-129001996D01*
X100849500Y-123029687D01*
X108114252Y-123029687D01*
X108332257Y-123557300D01*
X108735577Y-123961324D01*
X109262809Y-124180250D01*
X109833687Y-124180748D01*
X110361300Y-123962743D01*
X110765324Y-123559423D01*
X110984250Y-123032191D01*
X110984252Y-123029687D01*
X115214252Y-123029687D01*
X115432257Y-123557300D01*
X115835577Y-123961324D01*
X116362809Y-124180250D01*
X116933687Y-124180748D01*
X117461300Y-123962743D01*
X117865324Y-123559423D01*
X117944394Y-123369000D01*
X129680560Y-123369000D01*
X129680560Y-127329000D01*
X129724838Y-127564317D01*
X129863910Y-127780441D01*
X130076110Y-127925431D01*
X130328000Y-127976440D01*
X132308000Y-127976440D01*
X132543317Y-127932162D01*
X132759441Y-127793090D01*
X132904431Y-127580890D01*
X132955440Y-127329000D01*
X132955440Y-125476000D01*
X134693000Y-125476000D01*
X134693000Y-126466000D01*
X134865297Y-127078193D01*
X135258754Y-127577851D01*
X135813472Y-127888905D01*
X135939135Y-127919218D01*
X136191000Y-127799740D01*
X136191000Y-125476000D01*
X136445000Y-125476000D01*
X136445000Y-127799740D01*
X136696865Y-127919218D01*
X136822528Y-127888905D01*
X137377246Y-127577851D01*
X137770703Y-127078193D01*
X137943000Y-126466000D01*
X137943000Y-125476000D01*
X136445000Y-125476000D01*
X136191000Y-125476000D01*
X134693000Y-125476000D01*
X132955440Y-125476000D01*
X132955440Y-124232000D01*
X134693000Y-124232000D01*
X134693000Y-125222000D01*
X136191000Y-125222000D01*
X136191000Y-122898260D01*
X136445000Y-122898260D01*
X136445000Y-125222000D01*
X137943000Y-125222000D01*
X137943000Y-124232000D01*
X137770703Y-123619807D01*
X137377246Y-123120149D01*
X136822528Y-122809095D01*
X136696865Y-122778782D01*
X136445000Y-122898260D01*
X136191000Y-122898260D01*
X135939135Y-122778782D01*
X135813472Y-122809095D01*
X135258754Y-123120149D01*
X134865297Y-123619807D01*
X134693000Y-124232000D01*
X132955440Y-124232000D01*
X132955440Y-123369000D01*
X132911162Y-123133683D01*
X132772090Y-122917559D01*
X132559890Y-122772569D01*
X132308000Y-122721560D01*
X130328000Y-122721560D01*
X130092683Y-122765838D01*
X129876559Y-122904910D01*
X129731569Y-123117110D01*
X129680560Y-123369000D01*
X117944394Y-123369000D01*
X118084250Y-123032191D01*
X118084748Y-122461313D01*
X118030982Y-122331187D01*
X150520252Y-122331187D01*
X150738257Y-122858800D01*
X151141577Y-123262824D01*
X151668809Y-123481750D01*
X152239687Y-123482248D01*
X152767300Y-123264243D01*
X153171324Y-122860923D01*
X153390250Y-122333691D01*
X153390252Y-122331187D01*
X157620252Y-122331187D01*
X157838257Y-122858800D01*
X158241577Y-123262824D01*
X158768809Y-123481750D01*
X159339687Y-123482248D01*
X159867300Y-123264243D01*
X160271324Y-122860923D01*
X160490250Y-122333691D01*
X160490748Y-121762813D01*
X160272743Y-121235200D01*
X159869423Y-120831176D01*
X159342191Y-120612250D01*
X158771313Y-120611752D01*
X158243700Y-120829757D01*
X157839676Y-121233077D01*
X157620750Y-121760309D01*
X157620252Y-122331187D01*
X153390252Y-122331187D01*
X153390748Y-121762813D01*
X153172743Y-121235200D01*
X152769423Y-120831176D01*
X152242191Y-120612250D01*
X151671313Y-120611752D01*
X151143700Y-120829757D01*
X150739676Y-121233077D01*
X150520750Y-121760309D01*
X150520252Y-122331187D01*
X118030982Y-122331187D01*
X117866743Y-121933700D01*
X117463423Y-121529676D01*
X116936191Y-121310750D01*
X116365313Y-121310252D01*
X115837700Y-121528257D01*
X115433676Y-121931577D01*
X115214750Y-122458809D01*
X115214252Y-123029687D01*
X110984252Y-123029687D01*
X110984748Y-122461313D01*
X110766743Y-121933700D01*
X110363423Y-121529676D01*
X109836191Y-121310750D01*
X109265313Y-121310252D01*
X108737700Y-121528257D01*
X108333676Y-121931577D01*
X108114750Y-122458809D01*
X108114252Y-123029687D01*
X100849500Y-123029687D01*
X100849500Y-115176500D01*
X120625060Y-115176500D01*
X120625060Y-118376500D01*
X120669338Y-118611817D01*
X120808410Y-118827941D01*
X121020610Y-118972931D01*
X121272500Y-119023940D01*
X124472500Y-119023940D01*
X124707817Y-118979662D01*
X124923941Y-118840590D01*
X125068931Y-118628390D01*
X125119940Y-118376500D01*
X125119940Y-115748000D01*
X142532560Y-115748000D01*
X142532560Y-118948000D01*
X142576838Y-119183317D01*
X142715910Y-119399441D01*
X142928110Y-119544431D01*
X143180000Y-119595440D01*
X146380000Y-119595440D01*
X146615317Y-119551162D01*
X146831441Y-119412090D01*
X146976431Y-119199890D01*
X147027440Y-118948000D01*
X147027440Y-115748000D01*
X146983162Y-115512683D01*
X146844090Y-115296559D01*
X146631890Y-115151569D01*
X146380000Y-115100560D01*
X143180000Y-115100560D01*
X142944683Y-115144838D01*
X142728559Y-115283910D01*
X142583569Y-115496110D01*
X142532560Y-115748000D01*
X125119940Y-115748000D01*
X125119940Y-115176500D01*
X125075662Y-114941183D01*
X124936590Y-114725059D01*
X124724390Y-114580069D01*
X124472500Y-114529060D01*
X121272500Y-114529060D01*
X121037183Y-114573338D01*
X120821059Y-114712410D01*
X120676069Y-114924610D01*
X120625060Y-115176500D01*
X100849500Y-115176500D01*
X100849500Y-111109129D01*
X125040584Y-111109129D01*
X125051320Y-111169350D01*
X125299510Y-111629985D01*
X125705085Y-111960578D01*
X126206300Y-112110800D01*
X126606300Y-112110800D01*
X126606300Y-110902800D01*
X126860300Y-110902800D01*
X126860300Y-112110800D01*
X127260300Y-112110800D01*
X127761515Y-111960578D01*
X128167090Y-111629985D01*
X128167174Y-111629829D01*
X140928284Y-111629829D01*
X140939020Y-111690050D01*
X141187210Y-112150685D01*
X141592785Y-112481278D01*
X142094000Y-112631500D01*
X142494000Y-112631500D01*
X142494000Y-111423500D01*
X142748000Y-111423500D01*
X142748000Y-112631500D01*
X143148000Y-112631500D01*
X143649215Y-112481278D01*
X144054790Y-112150685D01*
X144302980Y-111690050D01*
X144313716Y-111629829D01*
X144190374Y-111423500D01*
X142748000Y-111423500D01*
X142494000Y-111423500D01*
X141051626Y-111423500D01*
X140928284Y-111629829D01*
X128167174Y-111629829D01*
X128415280Y-111169350D01*
X128426016Y-111109129D01*
X128302674Y-110902800D01*
X126860300Y-110902800D01*
X126606300Y-110902800D01*
X125163926Y-110902800D01*
X125040584Y-111109129D01*
X100849500Y-111109129D01*
X100849500Y-109759539D01*
X112082596Y-109759539D01*
X112243459Y-110147923D01*
X112619366Y-110562889D01*
X113125459Y-110802414D01*
X113347500Y-110681129D01*
X113347500Y-109537500D01*
X113601500Y-109537500D01*
X113601500Y-110681129D01*
X113823541Y-110802414D01*
X114329634Y-110562889D01*
X114705541Y-110147923D01*
X114866404Y-109759539D01*
X114830775Y-109694687D01*
X119659252Y-109694687D01*
X119877257Y-110222300D01*
X120280577Y-110626324D01*
X120807809Y-110845250D01*
X121378687Y-110845748D01*
X121906300Y-110627743D01*
X122310324Y-110224423D01*
X122529250Y-109697191D01*
X122529748Y-109126313D01*
X122506811Y-109070800D01*
X124964309Y-109070800D01*
X125065930Y-109581682D01*
X125296633Y-109926955D01*
X125051320Y-110382250D01*
X125040584Y-110442471D01*
X125163926Y-110648800D01*
X126606300Y-110648800D01*
X126606300Y-110628800D01*
X126860300Y-110628800D01*
X126860300Y-110648800D01*
X128302674Y-110648800D01*
X128426016Y-110442471D01*
X128415280Y-110382250D01*
X128169967Y-109926955D01*
X128400670Y-109581682D01*
X128502291Y-109070800D01*
X128400670Y-108559918D01*
X128169967Y-108214645D01*
X128415280Y-107759350D01*
X128426016Y-107699129D01*
X128302674Y-107492800D01*
X126860300Y-107492800D01*
X126860300Y-107512800D01*
X126606300Y-107512800D01*
X126606300Y-107492800D01*
X125163926Y-107492800D01*
X125040584Y-107699129D01*
X125051320Y-107759350D01*
X125296633Y-108214645D01*
X125065930Y-108559918D01*
X124964309Y-109070800D01*
X122506811Y-109070800D01*
X122311743Y-108598700D01*
X121908423Y-108194676D01*
X121381191Y-107975750D01*
X120810313Y-107975252D01*
X120282700Y-108193257D01*
X119878676Y-108596577D01*
X119659750Y-109123809D01*
X119659252Y-109694687D01*
X114830775Y-109694687D01*
X114744415Y-109537500D01*
X113601500Y-109537500D01*
X113347500Y-109537500D01*
X112204585Y-109537500D01*
X112082596Y-109759539D01*
X100849500Y-109759539D01*
X100849500Y-109061461D01*
X112082596Y-109061461D01*
X112204585Y-109283500D01*
X113347500Y-109283500D01*
X113347500Y-108139871D01*
X113601500Y-108139871D01*
X113601500Y-109283500D01*
X114744415Y-109283500D01*
X114866404Y-109061461D01*
X114705541Y-108673077D01*
X114329634Y-108258111D01*
X113823541Y-108018586D01*
X113601500Y-108139871D01*
X113347500Y-108139871D01*
X113125459Y-108018586D01*
X112619366Y-108258111D01*
X112243459Y-108673077D01*
X112082596Y-109061461D01*
X100849500Y-109061461D01*
X100849500Y-108132245D01*
X105828361Y-108132245D01*
X105902495Y-108378364D01*
X106439723Y-108571465D01*
X107009954Y-108544278D01*
X107410505Y-108378364D01*
X107484639Y-108132245D01*
X106656500Y-107304105D01*
X105828361Y-108132245D01*
X100849500Y-108132245D01*
X100849500Y-106907723D01*
X105209535Y-106907723D01*
X105236722Y-107477954D01*
X105402636Y-107878505D01*
X105648755Y-107952639D01*
X106476895Y-107124500D01*
X106836105Y-107124500D01*
X107664245Y-107952639D01*
X107711667Y-107938355D01*
X107753338Y-108159817D01*
X107892410Y-108375941D01*
X108104610Y-108520931D01*
X108356500Y-108571940D01*
X109956500Y-108571940D01*
X110191817Y-108527662D01*
X110407941Y-108388590D01*
X110552931Y-108176390D01*
X110603940Y-107924500D01*
X110603940Y-107378600D01*
X132753460Y-107378600D01*
X132753460Y-108978600D01*
X132797738Y-109213917D01*
X132936810Y-109430041D01*
X133149010Y-109575031D01*
X133400900Y-109626040D01*
X135000900Y-109626040D01*
X135236217Y-109581762D01*
X135452341Y-109442690D01*
X135597331Y-109230490D01*
X135606270Y-109186345D01*
X135872761Y-109186345D01*
X135946895Y-109432464D01*
X136484123Y-109625565D01*
X137054354Y-109598378D01*
X137070958Y-109591500D01*
X140852009Y-109591500D01*
X140953630Y-110102382D01*
X141184333Y-110447655D01*
X140939020Y-110902950D01*
X140928284Y-110963171D01*
X141051626Y-111169500D01*
X142494000Y-111169500D01*
X142494000Y-111149500D01*
X142748000Y-111149500D01*
X142748000Y-111169500D01*
X144190374Y-111169500D01*
X144313716Y-110963171D01*
X144302980Y-110902950D01*
X144057667Y-110447655D01*
X144288370Y-110102382D01*
X144297956Y-110054188D01*
X146234002Y-110054188D01*
X146452007Y-110581801D01*
X146855327Y-110985825D01*
X147382559Y-111204751D01*
X147953437Y-111205249D01*
X148481050Y-110987244D01*
X148885074Y-110583924D01*
X149078110Y-110119040D01*
X153897346Y-110119040D01*
X154058209Y-110507424D01*
X154434116Y-110922390D01*
X154940209Y-111161915D01*
X155162250Y-111040630D01*
X155162250Y-109897001D01*
X155416250Y-109897001D01*
X155416250Y-111040630D01*
X155638291Y-111161915D01*
X156144384Y-110922390D01*
X156520291Y-110507424D01*
X156681154Y-110119040D01*
X156559165Y-109897001D01*
X155416250Y-109897001D01*
X155162250Y-109897001D01*
X154019335Y-109897001D01*
X153897346Y-110119040D01*
X149078110Y-110119040D01*
X149104000Y-110056692D01*
X149104498Y-109485814D01*
X149077702Y-109420962D01*
X153897346Y-109420962D01*
X154019335Y-109643001D01*
X155162250Y-109643001D01*
X155162250Y-108499372D01*
X155416250Y-108499372D01*
X155416250Y-109643001D01*
X156559165Y-109643001D01*
X156681154Y-109420962D01*
X156520291Y-109032578D01*
X156144384Y-108617612D01*
X155638291Y-108378087D01*
X155416250Y-108499372D01*
X155162250Y-108499372D01*
X154940209Y-108378087D01*
X154434116Y-108617612D01*
X154058209Y-109032578D01*
X153897346Y-109420962D01*
X149077702Y-109420962D01*
X148886493Y-108958201D01*
X148483173Y-108554177D01*
X147955941Y-108335251D01*
X147385063Y-108334753D01*
X146857450Y-108552758D01*
X146453426Y-108956078D01*
X146234500Y-109483310D01*
X146234002Y-110054188D01*
X144297956Y-110054188D01*
X144389991Y-109591500D01*
X144288370Y-109080618D01*
X144057667Y-108735345D01*
X144302980Y-108280050D01*
X144313716Y-108219829D01*
X144190374Y-108013500D01*
X142748000Y-108013500D01*
X142748000Y-108033500D01*
X142494000Y-108033500D01*
X142494000Y-108013500D01*
X141051626Y-108013500D01*
X140928284Y-108219829D01*
X140939020Y-108280050D01*
X141184333Y-108735345D01*
X140953630Y-109080618D01*
X140852009Y-109591500D01*
X137070958Y-109591500D01*
X137454905Y-109432464D01*
X137529039Y-109186345D01*
X136700900Y-108358205D01*
X135872761Y-109186345D01*
X135606270Y-109186345D01*
X135645546Y-108992399D01*
X135693155Y-109006739D01*
X136521295Y-108178600D01*
X136880505Y-108178600D01*
X137708645Y-109006739D01*
X137954764Y-108932605D01*
X138147865Y-108395377D01*
X138120678Y-107825146D01*
X137954764Y-107424595D01*
X137708645Y-107350461D01*
X136880505Y-108178600D01*
X136521295Y-108178600D01*
X135693155Y-107350461D01*
X135645733Y-107364745D01*
X135609251Y-107170855D01*
X135872761Y-107170855D01*
X136700900Y-107998995D01*
X137529039Y-107170855D01*
X137454905Y-106924736D01*
X136917677Y-106731635D01*
X136347446Y-106758822D01*
X135946895Y-106924736D01*
X135872761Y-107170855D01*
X135609251Y-107170855D01*
X135604062Y-107143283D01*
X135464990Y-106927159D01*
X135252790Y-106782169D01*
X135000900Y-106731160D01*
X133400900Y-106731160D01*
X133165583Y-106775438D01*
X132949459Y-106914510D01*
X132804469Y-107126710D01*
X132753460Y-107378600D01*
X110603940Y-107378600D01*
X110603940Y-106324500D01*
X110559662Y-106089183D01*
X110420590Y-105873059D01*
X110208390Y-105728069D01*
X109956500Y-105677060D01*
X108356500Y-105677060D01*
X108121183Y-105721338D01*
X107905059Y-105860410D01*
X107760069Y-106072610D01*
X107711854Y-106310701D01*
X107664245Y-106296361D01*
X106836105Y-107124500D01*
X106476895Y-107124500D01*
X105648755Y-106296361D01*
X105402636Y-106370495D01*
X105209535Y-106907723D01*
X100849500Y-106907723D01*
X100849500Y-106116755D01*
X105828361Y-106116755D01*
X106656500Y-106944895D01*
X107484639Y-106116755D01*
X107410505Y-105870636D01*
X106873277Y-105677535D01*
X106303046Y-105704722D01*
X105902495Y-105870636D01*
X105828361Y-106116755D01*
X100849500Y-106116755D01*
X100849500Y-105198887D01*
X112090052Y-105198887D01*
X112308057Y-105726500D01*
X112711377Y-106130524D01*
X113238609Y-106349450D01*
X113809487Y-106349948D01*
X114337100Y-106131943D01*
X114741124Y-105728623D01*
X114960050Y-105201391D01*
X114960300Y-104914700D01*
X119682187Y-104914700D01*
X119791420Y-105463851D01*
X120102489Y-105929398D01*
X120568036Y-106240467D01*
X121117187Y-106349700D01*
X121173413Y-106349700D01*
X121722564Y-106240467D01*
X122188111Y-105929398D01*
X122367582Y-105660800D01*
X124964309Y-105660800D01*
X125065930Y-106171682D01*
X125296633Y-106516955D01*
X125051320Y-106972250D01*
X125040584Y-107032471D01*
X125163926Y-107238800D01*
X126606300Y-107238800D01*
X126606300Y-107218800D01*
X126860300Y-107218800D01*
X126860300Y-107238800D01*
X128302674Y-107238800D01*
X128426016Y-107032471D01*
X128415280Y-106972250D01*
X128169967Y-106516955D01*
X128394109Y-106181500D01*
X140852009Y-106181500D01*
X140953630Y-106692382D01*
X141184333Y-107037655D01*
X140939020Y-107492950D01*
X140928284Y-107553171D01*
X141051626Y-107759500D01*
X142494000Y-107759500D01*
X142494000Y-107739500D01*
X142748000Y-107739500D01*
X142748000Y-107759500D01*
X144190374Y-107759500D01*
X144313716Y-107553171D01*
X144302980Y-107492950D01*
X144057667Y-107037655D01*
X144288370Y-106692382D01*
X144389991Y-106181500D01*
X144288370Y-105670618D01*
X144171467Y-105495660D01*
X144217431Y-105428390D01*
X144259732Y-105219500D01*
X146237887Y-105219500D01*
X146347120Y-105768651D01*
X146658189Y-106234198D01*
X147123736Y-106545267D01*
X147672887Y-106654500D01*
X147729113Y-106654500D01*
X148278264Y-106545267D01*
X148743811Y-106234198D01*
X149054880Y-105768651D01*
X149107584Y-105503687D01*
X153885752Y-105503687D01*
X154103757Y-106031300D01*
X154507077Y-106435324D01*
X155034309Y-106654250D01*
X155605187Y-106654748D01*
X156097085Y-106451500D01*
X159398060Y-106451500D01*
X159398060Y-108051500D01*
X159442338Y-108286817D01*
X159581410Y-108502941D01*
X159793610Y-108647931D01*
X160045500Y-108698940D01*
X161645500Y-108698940D01*
X161880817Y-108654662D01*
X162096941Y-108515590D01*
X162241931Y-108303390D01*
X162250870Y-108259245D01*
X162517361Y-108259245D01*
X162591495Y-108505364D01*
X163128723Y-108698465D01*
X163698954Y-108671278D01*
X164099505Y-108505364D01*
X164173639Y-108259245D01*
X163345500Y-107431105D01*
X162517361Y-108259245D01*
X162250870Y-108259245D01*
X162290146Y-108065299D01*
X162337755Y-108079639D01*
X163165895Y-107251500D01*
X163525105Y-107251500D01*
X164353245Y-108079639D01*
X164599364Y-108005505D01*
X164792465Y-107468277D01*
X164765278Y-106898046D01*
X164599364Y-106497495D01*
X164353245Y-106423361D01*
X163525105Y-107251500D01*
X163165895Y-107251500D01*
X162337755Y-106423361D01*
X162290333Y-106437645D01*
X162253851Y-106243755D01*
X162517361Y-106243755D01*
X163345500Y-107071895D01*
X164173639Y-106243755D01*
X164099505Y-105997636D01*
X163562277Y-105804535D01*
X162992046Y-105831722D01*
X162591495Y-105997636D01*
X162517361Y-106243755D01*
X162253851Y-106243755D01*
X162248662Y-106216183D01*
X162109590Y-106000059D01*
X161897390Y-105855069D01*
X161645500Y-105804060D01*
X160045500Y-105804060D01*
X159810183Y-105848338D01*
X159594059Y-105987410D01*
X159449069Y-106199610D01*
X159398060Y-106451500D01*
X156097085Y-106451500D01*
X156132800Y-106436743D01*
X156536824Y-106033423D01*
X156755750Y-105506191D01*
X156756248Y-104935313D01*
X156538243Y-104407700D01*
X156134923Y-104003676D01*
X155607691Y-103784750D01*
X155036813Y-103784252D01*
X154509200Y-104002257D01*
X154105176Y-104405577D01*
X153886250Y-104932809D01*
X153885752Y-105503687D01*
X149107584Y-105503687D01*
X149164113Y-105219500D01*
X149054880Y-104670349D01*
X148743811Y-104204802D01*
X148278264Y-103893733D01*
X147729113Y-103784500D01*
X147672887Y-103784500D01*
X147123736Y-103893733D01*
X146658189Y-104204802D01*
X146347120Y-104670349D01*
X146237887Y-105219500D01*
X144259732Y-105219500D01*
X144268440Y-105176500D01*
X144268440Y-103776500D01*
X144224162Y-103541183D01*
X144085090Y-103325059D01*
X143872890Y-103180069D01*
X143621000Y-103129060D01*
X141621000Y-103129060D01*
X141385683Y-103173338D01*
X141169559Y-103312410D01*
X141024569Y-103524610D01*
X140973560Y-103776500D01*
X140973560Y-105176500D01*
X141017838Y-105411817D01*
X141071173Y-105494702D01*
X140953630Y-105670618D01*
X140852009Y-106181500D01*
X128394109Y-106181500D01*
X128400670Y-106171682D01*
X128502291Y-105660800D01*
X128400670Y-105149918D01*
X128283767Y-104974960D01*
X128329731Y-104907690D01*
X128380740Y-104655800D01*
X128380740Y-103255800D01*
X128336462Y-103020483D01*
X128197390Y-102804359D01*
X127985190Y-102659369D01*
X127733300Y-102608360D01*
X125733300Y-102608360D01*
X125497983Y-102652638D01*
X125281859Y-102791710D01*
X125136869Y-103003910D01*
X125085860Y-103255800D01*
X125085860Y-104655800D01*
X125130138Y-104891117D01*
X125183473Y-104974002D01*
X125065930Y-105149918D01*
X124964309Y-105660800D01*
X122367582Y-105660800D01*
X122499180Y-105463851D01*
X122608413Y-104914700D01*
X122499180Y-104365549D01*
X122188111Y-103900002D01*
X121722564Y-103588933D01*
X121173413Y-103479700D01*
X121117187Y-103479700D01*
X120568036Y-103588933D01*
X120102489Y-103900002D01*
X119791420Y-104365549D01*
X119682187Y-104914700D01*
X114960300Y-104914700D01*
X114960548Y-104630513D01*
X114742543Y-104102900D01*
X114339223Y-103698876D01*
X113811991Y-103479950D01*
X113241113Y-103479452D01*
X112713500Y-103697457D01*
X112309476Y-104100777D01*
X112090550Y-104628009D01*
X112090052Y-105198887D01*
X100849500Y-105198887D01*
X100849500Y-97405307D01*
X114212000Y-97405307D01*
X114212000Y-97463493D01*
X114325039Y-98031778D01*
X114646946Y-98513547D01*
X115128715Y-98835454D01*
X115697000Y-98948493D01*
X116265285Y-98835454D01*
X116747054Y-98513547D01*
X116967000Y-98184374D01*
X117186946Y-98513547D01*
X117668715Y-98835454D01*
X118237000Y-98948493D01*
X118805285Y-98835454D01*
X119287054Y-98513547D01*
X119507000Y-98184374D01*
X119726946Y-98513547D01*
X120208715Y-98835454D01*
X120777000Y-98948493D01*
X121345285Y-98835454D01*
X121827054Y-98513547D01*
X122054702Y-98172847D01*
X122121817Y-98315758D01*
X122550076Y-98706045D01*
X122960110Y-98875876D01*
X123190000Y-98754555D01*
X123190000Y-97561400D01*
X123170000Y-97561400D01*
X123170000Y-97307400D01*
X123190000Y-97307400D01*
X123190000Y-96114245D01*
X122960110Y-95992924D01*
X122550076Y-96162755D01*
X122121817Y-96553042D01*
X122054702Y-96695953D01*
X121827054Y-96355253D01*
X121345285Y-96033346D01*
X120777000Y-95920307D01*
X120208715Y-96033346D01*
X119726946Y-96355253D01*
X119507000Y-96684426D01*
X119287054Y-96355253D01*
X118805285Y-96033346D01*
X118237000Y-95920307D01*
X117668715Y-96033346D01*
X117186946Y-96355253D01*
X116967000Y-96684426D01*
X116747054Y-96355253D01*
X116265285Y-96033346D01*
X115697000Y-95920307D01*
X115128715Y-96033346D01*
X114646946Y-96355253D01*
X114325039Y-96837022D01*
X114212000Y-97405307D01*
X100849500Y-97405307D01*
X100849500Y-53340000D01*
X106126000Y-53340000D01*
X106126000Y-88773000D01*
X106197173Y-89130809D01*
X106399855Y-89434145D01*
X111733855Y-94768145D01*
X112037191Y-94970827D01*
X112395000Y-95042000D01*
X130549710Y-95042000D01*
X131613086Y-96105376D01*
X131505285Y-96033346D01*
X130937000Y-95920307D01*
X130368715Y-96033346D01*
X129886946Y-96355253D01*
X129667000Y-96684426D01*
X129447054Y-96355253D01*
X128965285Y-96033346D01*
X128397000Y-95920307D01*
X127828715Y-96033346D01*
X127346946Y-96355253D01*
X127127000Y-96684426D01*
X126907054Y-96355253D01*
X126425285Y-96033346D01*
X125857000Y-95920307D01*
X125288715Y-96033346D01*
X124806946Y-96355253D01*
X124579298Y-96695953D01*
X124512183Y-96553042D01*
X124083924Y-96162755D01*
X123673890Y-95992924D01*
X123444000Y-96114245D01*
X123444000Y-97307400D01*
X123464000Y-97307400D01*
X123464000Y-97561400D01*
X123444000Y-97561400D01*
X123444000Y-98754555D01*
X123673890Y-98875876D01*
X124083924Y-98706045D01*
X124512183Y-98315758D01*
X124579298Y-98172847D01*
X124806946Y-98513547D01*
X125288715Y-98835454D01*
X125857000Y-98948493D01*
X126425285Y-98835454D01*
X126907054Y-98513547D01*
X127127000Y-98184374D01*
X127346946Y-98513547D01*
X127828715Y-98835454D01*
X128397000Y-98948493D01*
X128965285Y-98835454D01*
X129447054Y-98513547D01*
X129667000Y-98184374D01*
X129886946Y-98513547D01*
X130368715Y-98835454D01*
X130937000Y-98948493D01*
X131505285Y-98835454D01*
X131987054Y-98513547D01*
X132207000Y-98184374D01*
X132426946Y-98513547D01*
X132908715Y-98835454D01*
X133477000Y-98948493D01*
X134045285Y-98835454D01*
X134527054Y-98513547D01*
X134747000Y-98184374D01*
X134966946Y-98513547D01*
X135448715Y-98835454D01*
X136017000Y-98948493D01*
X136585285Y-98835454D01*
X137067054Y-98513547D01*
X137287000Y-98184374D01*
X137506946Y-98513547D01*
X137988715Y-98835454D01*
X138557000Y-98948493D01*
X139125285Y-98835454D01*
X139607054Y-98513547D01*
X139827000Y-98184374D01*
X140046946Y-98513547D01*
X140528715Y-98835454D01*
X141097000Y-98948493D01*
X141665285Y-98835454D01*
X142147054Y-98513547D01*
X142367000Y-98184374D01*
X142586946Y-98513547D01*
X143068715Y-98835454D01*
X143637000Y-98948493D01*
X144205285Y-98835454D01*
X144687054Y-98513547D01*
X144907000Y-98184374D01*
X145126946Y-98513547D01*
X145608715Y-98835454D01*
X146177000Y-98948493D01*
X146745285Y-98835454D01*
X147227054Y-98513547D01*
X147447000Y-98184374D01*
X147666946Y-98513547D01*
X148148715Y-98835454D01*
X148717000Y-98948493D01*
X149285285Y-98835454D01*
X149767054Y-98513547D01*
X149987000Y-98184374D01*
X150206946Y-98513547D01*
X150688715Y-98835454D01*
X151257000Y-98948493D01*
X151825285Y-98835454D01*
X152307054Y-98513547D01*
X152334850Y-98471948D01*
X152343838Y-98519717D01*
X152482910Y-98735841D01*
X152695110Y-98880831D01*
X152947000Y-98931840D01*
X154647000Y-98931840D01*
X154882317Y-98887562D01*
X155098441Y-98748490D01*
X155243431Y-98536290D01*
X155294440Y-98284400D01*
X155294440Y-96584400D01*
X155250162Y-96349083D01*
X155111090Y-96132959D01*
X154898890Y-95987969D01*
X154647000Y-95936960D01*
X152947000Y-95936960D01*
X152711683Y-95981238D01*
X152495559Y-96120310D01*
X152350569Y-96332510D01*
X152336914Y-96399941D01*
X152307054Y-96355253D01*
X151825285Y-96033346D01*
X151257000Y-95920307D01*
X150688715Y-96033346D01*
X150206946Y-96355253D01*
X149987000Y-96684426D01*
X149767054Y-96355253D01*
X149285285Y-96033346D01*
X148717000Y-95920307D01*
X148148715Y-96033346D01*
X147666946Y-96355253D01*
X147447000Y-96684426D01*
X147227054Y-96355253D01*
X146745285Y-96033346D01*
X146177000Y-95920307D01*
X145608715Y-96033346D01*
X145126946Y-96355253D01*
X144907000Y-96684426D01*
X144687054Y-96355253D01*
X144205285Y-96033346D01*
X143637000Y-95920307D01*
X143068715Y-96033346D01*
X142586946Y-96355253D01*
X142367000Y-96684426D01*
X142147054Y-96355253D01*
X141665285Y-96033346D01*
X141097000Y-95920307D01*
X140528715Y-96033346D01*
X140046946Y-96355253D01*
X139827000Y-96684426D01*
X139607054Y-96355253D01*
X139125285Y-96033346D01*
X138557000Y-95920307D01*
X137988715Y-96033346D01*
X137506946Y-96355253D01*
X137287000Y-96684426D01*
X137067054Y-96355253D01*
X136952000Y-96278377D01*
X136952000Y-88652290D01*
X139325290Y-86279000D01*
X158877000Y-86279000D01*
X159234809Y-86207827D01*
X159538145Y-86005145D01*
X162967145Y-82576145D01*
X163169827Y-82272809D01*
X163241000Y-81915000D01*
X163241000Y-57023000D01*
X163169827Y-56665191D01*
X162967145Y-56361855D01*
X159665145Y-53059855D01*
X159361809Y-52857173D01*
X159004000Y-52786000D01*
X155575000Y-52786000D01*
X155217191Y-52857173D01*
X154913855Y-53059855D01*
X153897855Y-54075855D01*
X153695173Y-54379191D01*
X153624000Y-54737000D01*
X153624000Y-54783936D01*
X153544302Y-54837189D01*
X153289000Y-55219275D01*
X153033698Y-54837189D01*
X152568151Y-54526120D01*
X152019000Y-54416887D01*
X151469849Y-54526120D01*
X151004302Y-54837189D01*
X150734014Y-55241703D01*
X150631389Y-55024866D01*
X150216423Y-54648959D01*
X149828039Y-54488096D01*
X149606000Y-54610085D01*
X149606000Y-55753000D01*
X149626000Y-55753000D01*
X149626000Y-56007000D01*
X149606000Y-56007000D01*
X149606000Y-57149915D01*
X149828039Y-57271904D01*
X150216423Y-57111041D01*
X150631389Y-56735134D01*
X150734014Y-56518297D01*
X151004302Y-56922811D01*
X151469849Y-57233880D01*
X152019000Y-57343113D01*
X152568151Y-57233880D01*
X153033698Y-56922811D01*
X153289000Y-56540725D01*
X153544302Y-56922811D01*
X154009849Y-57233880D01*
X154559000Y-57343113D01*
X155108151Y-57233880D01*
X155573698Y-56922811D01*
X155670101Y-56778535D01*
X155695838Y-56915317D01*
X155834910Y-57131441D01*
X156047110Y-57276431D01*
X156299000Y-57327440D01*
X157224150Y-57327440D01*
X159032710Y-59136000D01*
X133737290Y-59136000D01*
X130606440Y-56005150D01*
X130606440Y-55080000D01*
X130562162Y-54844683D01*
X130423090Y-54628559D01*
X130210890Y-54483569D01*
X129959000Y-54432560D01*
X128359000Y-54432560D01*
X128123683Y-54476838D01*
X127907559Y-54615910D01*
X127762569Y-54828110D01*
X127731185Y-54983089D01*
X127633698Y-54837189D01*
X127168151Y-54526120D01*
X126619000Y-54416887D01*
X126069849Y-54526120D01*
X125604302Y-54837189D01*
X125349000Y-55219275D01*
X125093698Y-54837189D01*
X124628151Y-54526120D01*
X124079000Y-54416887D01*
X123529849Y-54526120D01*
X123064302Y-54837189D01*
X122794014Y-55241703D01*
X122691389Y-55024866D01*
X122276423Y-54648959D01*
X121888039Y-54488096D01*
X121666000Y-54610085D01*
X121666000Y-55753000D01*
X121686000Y-55753000D01*
X121686000Y-56007000D01*
X121666000Y-56007000D01*
X121666000Y-56027000D01*
X121412000Y-56027000D01*
X121412000Y-56007000D01*
X119126000Y-56007000D01*
X119126000Y-56027000D01*
X118872000Y-56027000D01*
X118872000Y-56007000D01*
X118852000Y-56007000D01*
X118852000Y-55753000D01*
X118872000Y-55753000D01*
X118872000Y-54610085D01*
X119126000Y-54610085D01*
X119126000Y-55753000D01*
X121412000Y-55753000D01*
X121412000Y-54610085D01*
X121189961Y-54488096D01*
X120801577Y-54648959D01*
X120386611Y-55024866D01*
X120269000Y-55273367D01*
X120151389Y-55024866D01*
X119736423Y-54648959D01*
X119348039Y-54488096D01*
X119126000Y-54610085D01*
X118872000Y-54610085D01*
X118649961Y-54488096D01*
X118261577Y-54648959D01*
X117846611Y-55024866D01*
X117743986Y-55241703D01*
X117473698Y-54837189D01*
X117008151Y-54526120D01*
X116459000Y-54416887D01*
X115909849Y-54526120D01*
X115444302Y-54837189D01*
X115189000Y-55219275D01*
X114933698Y-54837189D01*
X114854000Y-54783936D01*
X114854000Y-53467005D01*
X114854001Y-53467000D01*
X114782827Y-53109192D01*
X114782827Y-53109191D01*
X114580145Y-52805855D01*
X114525290Y-52751000D01*
X137407710Y-52751000D01*
X139114312Y-54457602D01*
X138769849Y-54526120D01*
X138304302Y-54837189D01*
X137993233Y-55302736D01*
X137884000Y-55851887D01*
X137884000Y-55908113D01*
X137993233Y-56457264D01*
X138304302Y-56922811D01*
X138769849Y-57233880D01*
X139319000Y-57343113D01*
X139868151Y-57233880D01*
X140333698Y-56922811D01*
X140589000Y-56540725D01*
X140844302Y-56922811D01*
X141309849Y-57233880D01*
X141859000Y-57343113D01*
X142408151Y-57233880D01*
X142873698Y-56922811D01*
X143129000Y-56540725D01*
X143384302Y-56922811D01*
X143849849Y-57233880D01*
X144399000Y-57343113D01*
X144948151Y-57233880D01*
X145413698Y-56922811D01*
X145683986Y-56518297D01*
X145786611Y-56735134D01*
X146201577Y-57111041D01*
X146589961Y-57271904D01*
X146812000Y-57149915D01*
X146812000Y-56007000D01*
X147066000Y-56007000D01*
X147066000Y-57149915D01*
X147288039Y-57271904D01*
X147676423Y-57111041D01*
X148091389Y-56735134D01*
X148209000Y-56486633D01*
X148326611Y-56735134D01*
X148741577Y-57111041D01*
X149129961Y-57271904D01*
X149352000Y-57149915D01*
X149352000Y-56007000D01*
X147066000Y-56007000D01*
X146812000Y-56007000D01*
X146792000Y-56007000D01*
X146792000Y-55753000D01*
X146812000Y-55753000D01*
X146812000Y-54610085D01*
X147066000Y-54610085D01*
X147066000Y-55753000D01*
X149352000Y-55753000D01*
X149352000Y-54610085D01*
X149129961Y-54488096D01*
X148741577Y-54648959D01*
X148326611Y-55024866D01*
X148209000Y-55273367D01*
X148091389Y-55024866D01*
X147676423Y-54648959D01*
X147288039Y-54488096D01*
X147066000Y-54610085D01*
X146812000Y-54610085D01*
X146589961Y-54488096D01*
X146201577Y-54648959D01*
X145786611Y-55024866D01*
X145683986Y-55241703D01*
X145413698Y-54837189D01*
X144948151Y-54526120D01*
X144399000Y-54416887D01*
X143849849Y-54526120D01*
X143384302Y-54837189D01*
X143129000Y-55219275D01*
X142873698Y-54837189D01*
X142408151Y-54526120D01*
X141859000Y-54416887D01*
X141741541Y-54440251D01*
X138456145Y-51154855D01*
X138152809Y-50952173D01*
X137795000Y-50881000D01*
X108585000Y-50881000D01*
X108227191Y-50952173D01*
X107923855Y-51154855D01*
X106399855Y-52678855D01*
X106197173Y-52982191D01*
X106126000Y-53340000D01*
X100849500Y-53340000D01*
X100849500Y-44043769D01*
X110469000Y-44043769D01*
X110469000Y-46126231D01*
X110592696Y-46748092D01*
X110944951Y-47275280D01*
X111472139Y-47627535D01*
X112094000Y-47751231D01*
X112715861Y-47627535D01*
X113243049Y-47275280D01*
X113595304Y-46748092D01*
X113719000Y-46126231D01*
X113719000Y-44043769D01*
X113595304Y-43421908D01*
X113383554Y-43105000D01*
X115456560Y-43105000D01*
X115456560Y-47065000D01*
X115500838Y-47300317D01*
X115639910Y-47516441D01*
X115852110Y-47661431D01*
X116104000Y-47712440D01*
X118084000Y-47712440D01*
X118319317Y-47668162D01*
X118535441Y-47529090D01*
X118680431Y-47316890D01*
X118731440Y-47065000D01*
X118731440Y-44043769D01*
X123169000Y-44043769D01*
X123169000Y-46126231D01*
X123292696Y-46748092D01*
X123644951Y-47275280D01*
X124172139Y-47627535D01*
X124794000Y-47751231D01*
X125415861Y-47627535D01*
X125943049Y-47275280D01*
X126295304Y-46748092D01*
X126419000Y-46126231D01*
X126419000Y-44043769D01*
X126295304Y-43421908D01*
X126083554Y-43105000D01*
X128156560Y-43105000D01*
X128156560Y-47065000D01*
X128200838Y-47300317D01*
X128339910Y-47516441D01*
X128552110Y-47661431D01*
X128804000Y-47712440D01*
X130784000Y-47712440D01*
X131019317Y-47668162D01*
X131235441Y-47529090D01*
X131380431Y-47316890D01*
X131431440Y-47065000D01*
X131431440Y-44043769D01*
X137139000Y-44043769D01*
X137139000Y-46126231D01*
X137262696Y-46748092D01*
X137614951Y-47275280D01*
X138142139Y-47627535D01*
X138764000Y-47751231D01*
X139385861Y-47627535D01*
X139913049Y-47275280D01*
X140265304Y-46748092D01*
X140389000Y-46126231D01*
X140389000Y-44043769D01*
X140265304Y-43421908D01*
X140053554Y-43105000D01*
X142126560Y-43105000D01*
X142126560Y-47065000D01*
X142170838Y-47300317D01*
X142309910Y-47516441D01*
X142522110Y-47661431D01*
X142774000Y-47712440D01*
X144754000Y-47712440D01*
X144989317Y-47668162D01*
X145205441Y-47529090D01*
X145350431Y-47316890D01*
X145401440Y-47065000D01*
X145401440Y-44043769D01*
X149839000Y-44043769D01*
X149839000Y-46126231D01*
X149962696Y-46748092D01*
X150314951Y-47275280D01*
X150842139Y-47627535D01*
X151464000Y-47751231D01*
X152085861Y-47627535D01*
X152613049Y-47275280D01*
X152965304Y-46748092D01*
X153089000Y-46126231D01*
X153089000Y-44043769D01*
X152965304Y-43421908D01*
X152753554Y-43105000D01*
X154826560Y-43105000D01*
X154826560Y-47065000D01*
X154870838Y-47300317D01*
X155009910Y-47516441D01*
X155222110Y-47661431D01*
X155474000Y-47712440D01*
X157454000Y-47712440D01*
X157689317Y-47668162D01*
X157905441Y-47529090D01*
X158050431Y-47316890D01*
X158101440Y-47065000D01*
X158101440Y-43105000D01*
X158057162Y-42869683D01*
X157918090Y-42653559D01*
X157705890Y-42508569D01*
X157454000Y-42457560D01*
X155474000Y-42457560D01*
X155238683Y-42501838D01*
X155022559Y-42640910D01*
X154877569Y-42853110D01*
X154826560Y-43105000D01*
X152753554Y-43105000D01*
X152613049Y-42894720D01*
X152085861Y-42542465D01*
X151464000Y-42418769D01*
X150842139Y-42542465D01*
X150314951Y-42894720D01*
X149962696Y-43421908D01*
X149839000Y-44043769D01*
X145401440Y-44043769D01*
X145401440Y-43105000D01*
X145357162Y-42869683D01*
X145218090Y-42653559D01*
X145005890Y-42508569D01*
X144754000Y-42457560D01*
X142774000Y-42457560D01*
X142538683Y-42501838D01*
X142322559Y-42640910D01*
X142177569Y-42853110D01*
X142126560Y-43105000D01*
X140053554Y-43105000D01*
X139913049Y-42894720D01*
X139385861Y-42542465D01*
X138764000Y-42418769D01*
X138142139Y-42542465D01*
X137614951Y-42894720D01*
X137262696Y-43421908D01*
X137139000Y-44043769D01*
X131431440Y-44043769D01*
X131431440Y-43105000D01*
X131387162Y-42869683D01*
X131248090Y-42653559D01*
X131035890Y-42508569D01*
X130784000Y-42457560D01*
X128804000Y-42457560D01*
X128568683Y-42501838D01*
X128352559Y-42640910D01*
X128207569Y-42853110D01*
X128156560Y-43105000D01*
X126083554Y-43105000D01*
X125943049Y-42894720D01*
X125415861Y-42542465D01*
X124794000Y-42418769D01*
X124172139Y-42542465D01*
X123644951Y-42894720D01*
X123292696Y-43421908D01*
X123169000Y-44043769D01*
X118731440Y-44043769D01*
X118731440Y-43105000D01*
X118687162Y-42869683D01*
X118548090Y-42653559D01*
X118335890Y-42508569D01*
X118084000Y-42457560D01*
X116104000Y-42457560D01*
X115868683Y-42501838D01*
X115652559Y-42640910D01*
X115507569Y-42853110D01*
X115456560Y-43105000D01*
X113383554Y-43105000D01*
X113243049Y-42894720D01*
X112715861Y-42542465D01*
X112094000Y-42418769D01*
X111472139Y-42542465D01*
X110944951Y-42894720D01*
X110592696Y-43421908D01*
X110469000Y-44043769D01*
X100849500Y-44043769D01*
X100849500Y-40144109D01*
X102027657Y-40144109D01*
X102329218Y-40873943D01*
X102887120Y-41432819D01*
X103616427Y-41735654D01*
X104406109Y-41736343D01*
X105135943Y-41434782D01*
X105694819Y-40876880D01*
X105997654Y-40147573D01*
X105997657Y-40144109D01*
X162987657Y-40144109D01*
X163289218Y-40873943D01*
X163847120Y-41432819D01*
X164576427Y-41735654D01*
X165366109Y-41736343D01*
X166095943Y-41434782D01*
X166654819Y-40876880D01*
X166957654Y-40147573D01*
X166958343Y-39357891D01*
X166656782Y-38628057D01*
X166098880Y-38069181D01*
X165369573Y-37766346D01*
X164579891Y-37765657D01*
X163850057Y-38067218D01*
X163291181Y-38625120D01*
X162988346Y-39354427D01*
X162987657Y-40144109D01*
X105997657Y-40144109D01*
X105998343Y-39357891D01*
X105696782Y-38628057D01*
X105138880Y-38069181D01*
X104409573Y-37766346D01*
X103619891Y-37765657D01*
X102890057Y-38067218D01*
X102331181Y-38625120D01*
X102028346Y-39354427D01*
X102027657Y-40144109D01*
X100849500Y-40144109D01*
X100849500Y-36651000D01*
X168200000Y-36651000D01*
X168200000Y-133783000D01*
G36*
X148077076Y-68425955D02*
X147648817Y-68816242D01*
X147402514Y-69340708D01*
X147523181Y-69570600D01*
X148717000Y-69570600D01*
X148717000Y-69550600D01*
X148971000Y-69550600D01*
X148971000Y-69570600D01*
X148991000Y-69570600D01*
X148991000Y-69824600D01*
X148971000Y-69824600D01*
X148971000Y-71017755D01*
X149200890Y-71139076D01*
X149610924Y-70969245D01*
X150039183Y-70578958D01*
X150106298Y-70436047D01*
X150333946Y-70776747D01*
X150815715Y-71098654D01*
X151384000Y-71211693D01*
X151952285Y-71098654D01*
X152434054Y-70776747D01*
X152461850Y-70735148D01*
X152470838Y-70782917D01*
X152609910Y-70999041D01*
X152822110Y-71144031D01*
X153074000Y-71195040D01*
X154099150Y-71195040D01*
X156291000Y-73386890D01*
X156291000Y-77971710D01*
X155314710Y-78948000D01*
X147453290Y-78948000D01*
X147112000Y-78606710D01*
X147112000Y-78270423D01*
X147227054Y-78193547D01*
X147447000Y-77864374D01*
X147666946Y-78193547D01*
X148148715Y-78515454D01*
X148717000Y-78628493D01*
X149285285Y-78515454D01*
X149767054Y-78193547D01*
X149987000Y-77864374D01*
X150206946Y-78193547D01*
X150688715Y-78515454D01*
X151257000Y-78628493D01*
X151825285Y-78515454D01*
X152307054Y-78193547D01*
X152334850Y-78151948D01*
X152343838Y-78199717D01*
X152482910Y-78415841D01*
X152695110Y-78560831D01*
X152947000Y-78611840D01*
X154647000Y-78611840D01*
X154882317Y-78567562D01*
X155098441Y-78428490D01*
X155243431Y-78216290D01*
X155294440Y-77964400D01*
X155294440Y-76264400D01*
X155250162Y-76029083D01*
X155111090Y-75812959D01*
X154898890Y-75667969D01*
X154647000Y-75616960D01*
X152947000Y-75616960D01*
X152711683Y-75661238D01*
X152495559Y-75800310D01*
X152350569Y-76012510D01*
X152336914Y-76079941D01*
X152307054Y-76035253D01*
X151825285Y-75713346D01*
X151257000Y-75600307D01*
X150688715Y-75713346D01*
X150206946Y-76035253D01*
X149987000Y-76364426D01*
X149767054Y-76035253D01*
X149652000Y-75958377D01*
X149652000Y-74549000D01*
X149580827Y-74191191D01*
X149378145Y-73887855D01*
X145544782Y-70054492D01*
X147402514Y-70054492D01*
X147648817Y-70578958D01*
X148077076Y-70969245D01*
X148487110Y-71139076D01*
X148717000Y-71017755D01*
X148717000Y-69824600D01*
X147523181Y-69824600D01*
X147402514Y-70054492D01*
X145544782Y-70054492D01*
X144552145Y-69061855D01*
X144248809Y-68859173D01*
X143891000Y-68788000D01*
X143569046Y-68788000D01*
X143540762Y-68637683D01*
X143401690Y-68421559D01*
X143329158Y-68372000D01*
X148207343Y-68372000D01*
X148077076Y-68425955D01*
X148077076Y-68425955D01*
G37*
X148077076Y-68425955D02*
X147648817Y-68816242D01*
X147402514Y-69340708D01*
X147523181Y-69570600D01*
X148717000Y-69570600D01*
X148717000Y-69550600D01*
X148971000Y-69550600D01*
X148971000Y-69570600D01*
X148991000Y-69570600D01*
X148991000Y-69824600D01*
X148971000Y-69824600D01*
X148971000Y-71017755D01*
X149200890Y-71139076D01*
X149610924Y-70969245D01*
X150039183Y-70578958D01*
X150106298Y-70436047D01*
X150333946Y-70776747D01*
X150815715Y-71098654D01*
X151384000Y-71211693D01*
X151952285Y-71098654D01*
X152434054Y-70776747D01*
X152461850Y-70735148D01*
X152470838Y-70782917D01*
X152609910Y-70999041D01*
X152822110Y-71144031D01*
X153074000Y-71195040D01*
X154099150Y-71195040D01*
X156291000Y-73386890D01*
X156291000Y-77971710D01*
X155314710Y-78948000D01*
X147453290Y-78948000D01*
X147112000Y-78606710D01*
X147112000Y-78270423D01*
X147227054Y-78193547D01*
X147447000Y-77864374D01*
X147666946Y-78193547D01*
X148148715Y-78515454D01*
X148717000Y-78628493D01*
X149285285Y-78515454D01*
X149767054Y-78193547D01*
X149987000Y-77864374D01*
X150206946Y-78193547D01*
X150688715Y-78515454D01*
X151257000Y-78628493D01*
X151825285Y-78515454D01*
X152307054Y-78193547D01*
X152334850Y-78151948D01*
X152343838Y-78199717D01*
X152482910Y-78415841D01*
X152695110Y-78560831D01*
X152947000Y-78611840D01*
X154647000Y-78611840D01*
X154882317Y-78567562D01*
X155098441Y-78428490D01*
X155243431Y-78216290D01*
X155294440Y-77964400D01*
X155294440Y-76264400D01*
X155250162Y-76029083D01*
X155111090Y-75812959D01*
X154898890Y-75667969D01*
X154647000Y-75616960D01*
X152947000Y-75616960D01*
X152711683Y-75661238D01*
X152495559Y-75800310D01*
X152350569Y-76012510D01*
X152336914Y-76079941D01*
X152307054Y-76035253D01*
X151825285Y-75713346D01*
X151257000Y-75600307D01*
X150688715Y-75713346D01*
X150206946Y-76035253D01*
X149987000Y-76364426D01*
X149767054Y-76035253D01*
X149652000Y-75958377D01*
X149652000Y-74549000D01*
X149580827Y-74191191D01*
X149378145Y-73887855D01*
X145544782Y-70054492D01*
X147402514Y-70054492D01*
X147648817Y-70578958D01*
X148077076Y-70969245D01*
X148487110Y-71139076D01*
X148717000Y-71017755D01*
X148717000Y-69824600D01*
X147523181Y-69824600D01*
X147402514Y-70054492D01*
X145544782Y-70054492D01*
X144552145Y-69061855D01*
X144248809Y-68859173D01*
X143891000Y-68788000D01*
X143569046Y-68788000D01*
X143540762Y-68637683D01*
X143401690Y-68421559D01*
X143329158Y-68372000D01*
X148207343Y-68372000D01*
X148077076Y-68425955D01*
G36*
X138384000Y-61214000D02*
X138384000Y-62403936D01*
X138304302Y-62457189D01*
X137993233Y-62922736D01*
X137884000Y-63471887D01*
X137884000Y-63528113D01*
X137993233Y-64077264D01*
X138304302Y-64542811D01*
X138769849Y-64853880D01*
X139319000Y-64963113D01*
X139868151Y-64853880D01*
X140333698Y-64542811D01*
X140589000Y-64160725D01*
X140844302Y-64542811D01*
X141309849Y-64853880D01*
X141859000Y-64963113D01*
X142408151Y-64853880D01*
X142873698Y-64542811D01*
X143129000Y-64160725D01*
X143384302Y-64542811D01*
X143849849Y-64853880D01*
X144399000Y-64963113D01*
X144948151Y-64853880D01*
X145413698Y-64542811D01*
X145683986Y-64138297D01*
X145786611Y-64355134D01*
X146201577Y-64731041D01*
X146589961Y-64891904D01*
X146812000Y-64769915D01*
X146812000Y-63627000D01*
X147066000Y-63627000D01*
X147066000Y-64769915D01*
X147288039Y-64891904D01*
X147676423Y-64731041D01*
X148091389Y-64355134D01*
X148209000Y-64106633D01*
X148326611Y-64355134D01*
X148741577Y-64731041D01*
X149129961Y-64891904D01*
X149352000Y-64769915D01*
X149352000Y-63627000D01*
X147066000Y-63627000D01*
X146812000Y-63627000D01*
X146792000Y-63627000D01*
X146792000Y-63373000D01*
X146812000Y-63373000D01*
X146812000Y-63353000D01*
X147066000Y-63353000D01*
X147066000Y-63373000D01*
X149352000Y-63373000D01*
X149352000Y-63353000D01*
X149606000Y-63353000D01*
X149606000Y-63373000D01*
X149626000Y-63373000D01*
X149626000Y-63627000D01*
X149606000Y-63627000D01*
X149606000Y-64769915D01*
X149828039Y-64891904D01*
X150216423Y-64731041D01*
X150631389Y-64355134D01*
X150734014Y-64138297D01*
X151004302Y-64542811D01*
X151469849Y-64853880D01*
X152019000Y-64963113D01*
X152568151Y-64853880D01*
X153033698Y-64542811D01*
X153289000Y-64160725D01*
X153461228Y-64418482D01*
X151377710Y-66502000D01*
X134753290Y-66502000D01*
X133376145Y-65124855D01*
X133072809Y-64922173D01*
X132715000Y-64851000D01*
X129712461Y-64851000D01*
X130173698Y-64542811D01*
X130484767Y-64077264D01*
X130594000Y-63528113D01*
X130594000Y-63471887D01*
X130484767Y-62922736D01*
X130173698Y-62457189D01*
X129708151Y-62146120D01*
X129159000Y-62036887D01*
X128609849Y-62146120D01*
X128144302Y-62457189D01*
X127889000Y-62839275D01*
X127633698Y-62457189D01*
X127168151Y-62146120D01*
X126619000Y-62036887D01*
X126069849Y-62146120D01*
X125604302Y-62457189D01*
X125349000Y-62839275D01*
X125093698Y-62457189D01*
X124628151Y-62146120D01*
X124079000Y-62036887D01*
X123529849Y-62146120D01*
X123064302Y-62457189D01*
X122794014Y-62861703D01*
X122691389Y-62644866D01*
X122276423Y-62268959D01*
X121888039Y-62108096D01*
X121666000Y-62230085D01*
X121666000Y-63373000D01*
X121686000Y-63373000D01*
X121686000Y-63627000D01*
X121666000Y-63627000D01*
X121666000Y-64769915D01*
X121888039Y-64891904D01*
X122276423Y-64731041D01*
X122691389Y-64355134D01*
X122794014Y-64138297D01*
X123064302Y-64542811D01*
X123529849Y-64853880D01*
X124079000Y-64963113D01*
X124628151Y-64853880D01*
X125093698Y-64542811D01*
X125349000Y-64160725D01*
X125604302Y-64542811D01*
X126069849Y-64853880D01*
X126619000Y-64963113D01*
X126736459Y-64939749D01*
X128044710Y-66248000D01*
X121894600Y-66248000D01*
X121536791Y-66319173D01*
X121233455Y-66521855D01*
X119656750Y-68098560D01*
X118631600Y-68098560D01*
X118396283Y-68142838D01*
X118180159Y-68281910D01*
X118035169Y-68494110D01*
X118021514Y-68561541D01*
X117991654Y-68516853D01*
X117509885Y-68194946D01*
X116941600Y-68081907D01*
X116373315Y-68194946D01*
X115891546Y-68516853D01*
X115663898Y-68857553D01*
X115596783Y-68714642D01*
X115168524Y-68324355D01*
X114758490Y-68154524D01*
X114528600Y-68275845D01*
X114528600Y-69469000D01*
X114548600Y-69469000D01*
X114548600Y-69723000D01*
X114528600Y-69723000D01*
X114528600Y-70916155D01*
X114758490Y-71037476D01*
X115168524Y-70867645D01*
X115596783Y-70477358D01*
X115663898Y-70334447D01*
X115891546Y-70675147D01*
X116373315Y-70997054D01*
X116941600Y-71110093D01*
X117509885Y-70997054D01*
X117991654Y-70675147D01*
X118019450Y-70633548D01*
X118028438Y-70681317D01*
X118167510Y-70897441D01*
X118379710Y-71042431D01*
X118631600Y-71093440D01*
X120331600Y-71093440D01*
X120566917Y-71049162D01*
X120783041Y-70910090D01*
X120928031Y-70697890D01*
X120979040Y-70446000D01*
X120979040Y-70054492D01*
X124288514Y-70054492D01*
X124534817Y-70578958D01*
X124963076Y-70969245D01*
X125373110Y-71139076D01*
X125603000Y-71017755D01*
X125603000Y-69824600D01*
X124409181Y-69824600D01*
X124288514Y-70054492D01*
X120979040Y-70054492D01*
X120979040Y-69420850D01*
X121059182Y-69340708D01*
X124288514Y-69340708D01*
X124409181Y-69570600D01*
X125603000Y-69570600D01*
X125603000Y-68377445D01*
X125373110Y-68256124D01*
X124963076Y-68425955D01*
X124534817Y-68816242D01*
X124288514Y-69340708D01*
X121059182Y-69340708D01*
X122281890Y-68118000D01*
X131819710Y-68118000D01*
X132041303Y-68339593D01*
X131911890Y-68251169D01*
X131660000Y-68200160D01*
X129960000Y-68200160D01*
X129724683Y-68244438D01*
X129508559Y-68383510D01*
X129363569Y-68595710D01*
X129349914Y-68663141D01*
X129320054Y-68618453D01*
X128838285Y-68296546D01*
X128270000Y-68183507D01*
X127701715Y-68296546D01*
X127219946Y-68618453D01*
X126992298Y-68959153D01*
X126925183Y-68816242D01*
X126496924Y-68425955D01*
X126086890Y-68256124D01*
X125857000Y-68377445D01*
X125857000Y-69570600D01*
X125877000Y-69570600D01*
X125877000Y-69824600D01*
X125857000Y-69824600D01*
X125857000Y-71017755D01*
X126086890Y-71139076D01*
X126496924Y-70969245D01*
X126925183Y-70578958D01*
X126992298Y-70436047D01*
X127219946Y-70776747D01*
X127701715Y-71098654D01*
X128270000Y-71211693D01*
X128838285Y-71098654D01*
X129320054Y-70776747D01*
X129347850Y-70735148D01*
X129356838Y-70782917D01*
X129495910Y-70999041D01*
X129708110Y-71144031D01*
X129875000Y-71177827D01*
X129875000Y-71374000D01*
X129946173Y-71731809D01*
X130148855Y-72035145D01*
X131346710Y-73233000D01*
X114687290Y-73233000D01*
X113203000Y-71748710D01*
X113203000Y-70470082D01*
X113206417Y-70477358D01*
X113634676Y-70867645D01*
X114044710Y-71037476D01*
X114274600Y-70916155D01*
X114274600Y-69723000D01*
X114254600Y-69723000D01*
X114254600Y-69469000D01*
X114274600Y-69469000D01*
X114274600Y-68275845D01*
X114044710Y-68154524D01*
X113634676Y-68324355D01*
X113206417Y-68714642D01*
X113203000Y-68721918D01*
X113203000Y-65538290D01*
X113801541Y-64939749D01*
X113919000Y-64963113D01*
X114468151Y-64853880D01*
X114933698Y-64542811D01*
X115189000Y-64160725D01*
X115444302Y-64542811D01*
X115909849Y-64853880D01*
X116459000Y-64963113D01*
X117008151Y-64853880D01*
X117473698Y-64542811D01*
X117743986Y-64138297D01*
X117846611Y-64355134D01*
X118261577Y-64731041D01*
X118649961Y-64891904D01*
X118872000Y-64769915D01*
X118872000Y-63627000D01*
X119126000Y-63627000D01*
X119126000Y-64769915D01*
X119348039Y-64891904D01*
X119736423Y-64731041D01*
X120151389Y-64355134D01*
X120269000Y-64106633D01*
X120386611Y-64355134D01*
X120801577Y-64731041D01*
X121189961Y-64891904D01*
X121412000Y-64769915D01*
X121412000Y-63627000D01*
X119126000Y-63627000D01*
X118872000Y-63627000D01*
X118852000Y-63627000D01*
X118852000Y-63373000D01*
X118872000Y-63373000D01*
X118872000Y-62230085D01*
X119126000Y-62230085D01*
X119126000Y-63373000D01*
X121412000Y-63373000D01*
X121412000Y-62230085D01*
X121189961Y-62108096D01*
X120801577Y-62268959D01*
X120386611Y-62644866D01*
X120269000Y-62893367D01*
X120151389Y-62644866D01*
X119736423Y-62268959D01*
X119348039Y-62108096D01*
X119126000Y-62230085D01*
X118872000Y-62230085D01*
X118649961Y-62108096D01*
X118261577Y-62268959D01*
X117846611Y-62644866D01*
X117743986Y-62861703D01*
X117473698Y-62457189D01*
X117008151Y-62146120D01*
X116459000Y-62036887D01*
X115909849Y-62146120D01*
X115444302Y-62457189D01*
X115189000Y-62839275D01*
X114933698Y-62457189D01*
X114468151Y-62146120D01*
X113919000Y-62036887D01*
X113369849Y-62146120D01*
X112904302Y-62457189D01*
X112649000Y-62839275D01*
X112393698Y-62457189D01*
X112314000Y-62403936D01*
X112314000Y-61855290D01*
X113163290Y-61006000D01*
X138425374Y-61006000D01*
X138384000Y-61214000D01*
X138384000Y-61214000D01*
G37*
X138384000Y-61214000D02*
X138384000Y-62403936D01*
X138304302Y-62457189D01*
X137993233Y-62922736D01*
X137884000Y-63471887D01*
X137884000Y-63528113D01*
X137993233Y-64077264D01*
X138304302Y-64542811D01*
X138769849Y-64853880D01*
X139319000Y-64963113D01*
X139868151Y-64853880D01*
X140333698Y-64542811D01*
X140589000Y-64160725D01*
X140844302Y-64542811D01*
X141309849Y-64853880D01*
X141859000Y-64963113D01*
X142408151Y-64853880D01*
X142873698Y-64542811D01*
X143129000Y-64160725D01*
X143384302Y-64542811D01*
X143849849Y-64853880D01*
X144399000Y-64963113D01*
X144948151Y-64853880D01*
X145413698Y-64542811D01*
X145683986Y-64138297D01*
X145786611Y-64355134D01*
X146201577Y-64731041D01*
X146589961Y-64891904D01*
X146812000Y-64769915D01*
X146812000Y-63627000D01*
X147066000Y-63627000D01*
X147066000Y-64769915D01*
X147288039Y-64891904D01*
X147676423Y-64731041D01*
X148091389Y-64355134D01*
X148209000Y-64106633D01*
X148326611Y-64355134D01*
X148741577Y-64731041D01*
X149129961Y-64891904D01*
X149352000Y-64769915D01*
X149352000Y-63627000D01*
X147066000Y-63627000D01*
X146812000Y-63627000D01*
X146792000Y-63627000D01*
X146792000Y-63373000D01*
X146812000Y-63373000D01*
X146812000Y-63353000D01*
X147066000Y-63353000D01*
X147066000Y-63373000D01*
X149352000Y-63373000D01*
X149352000Y-63353000D01*
X149606000Y-63353000D01*
X149606000Y-63373000D01*
X149626000Y-63373000D01*
X149626000Y-63627000D01*
X149606000Y-63627000D01*
X149606000Y-64769915D01*
X149828039Y-64891904D01*
X150216423Y-64731041D01*
X150631389Y-64355134D01*
X150734014Y-64138297D01*
X151004302Y-64542811D01*
X151469849Y-64853880D01*
X152019000Y-64963113D01*
X152568151Y-64853880D01*
X153033698Y-64542811D01*
X153289000Y-64160725D01*
X153461228Y-64418482D01*
X151377710Y-66502000D01*
X134753290Y-66502000D01*
X133376145Y-65124855D01*
X133072809Y-64922173D01*
X132715000Y-64851000D01*
X129712461Y-64851000D01*
X130173698Y-64542811D01*
X130484767Y-64077264D01*
X130594000Y-63528113D01*
X130594000Y-63471887D01*
X130484767Y-62922736D01*
X130173698Y-62457189D01*
X129708151Y-62146120D01*
X129159000Y-62036887D01*
X128609849Y-62146120D01*
X128144302Y-62457189D01*
X127889000Y-62839275D01*
X127633698Y-62457189D01*
X127168151Y-62146120D01*
X126619000Y-62036887D01*
X126069849Y-62146120D01*
X125604302Y-62457189D01*
X125349000Y-62839275D01*
X125093698Y-62457189D01*
X124628151Y-62146120D01*
X124079000Y-62036887D01*
X123529849Y-62146120D01*
X123064302Y-62457189D01*
X122794014Y-62861703D01*
X122691389Y-62644866D01*
X122276423Y-62268959D01*
X121888039Y-62108096D01*
X121666000Y-62230085D01*
X121666000Y-63373000D01*
X121686000Y-63373000D01*
X121686000Y-63627000D01*
X121666000Y-63627000D01*
X121666000Y-64769915D01*
X121888039Y-64891904D01*
X122276423Y-64731041D01*
X122691389Y-64355134D01*
X122794014Y-64138297D01*
X123064302Y-64542811D01*
X123529849Y-64853880D01*
X124079000Y-64963113D01*
X124628151Y-64853880D01*
X125093698Y-64542811D01*
X125349000Y-64160725D01*
X125604302Y-64542811D01*
X126069849Y-64853880D01*
X126619000Y-64963113D01*
X126736459Y-64939749D01*
X128044710Y-66248000D01*
X121894600Y-66248000D01*
X121536791Y-66319173D01*
X121233455Y-66521855D01*
X119656750Y-68098560D01*
X118631600Y-68098560D01*
X118396283Y-68142838D01*
X118180159Y-68281910D01*
X118035169Y-68494110D01*
X118021514Y-68561541D01*
X117991654Y-68516853D01*
X117509885Y-68194946D01*
X116941600Y-68081907D01*
X116373315Y-68194946D01*
X115891546Y-68516853D01*
X115663898Y-68857553D01*
X115596783Y-68714642D01*
X115168524Y-68324355D01*
X114758490Y-68154524D01*
X114528600Y-68275845D01*
X114528600Y-69469000D01*
X114548600Y-69469000D01*
X114548600Y-69723000D01*
X114528600Y-69723000D01*
X114528600Y-70916155D01*
X114758490Y-71037476D01*
X115168524Y-70867645D01*
X115596783Y-70477358D01*
X115663898Y-70334447D01*
X115891546Y-70675147D01*
X116373315Y-70997054D01*
X116941600Y-71110093D01*
X117509885Y-70997054D01*
X117991654Y-70675147D01*
X118019450Y-70633548D01*
X118028438Y-70681317D01*
X118167510Y-70897441D01*
X118379710Y-71042431D01*
X118631600Y-71093440D01*
X120331600Y-71093440D01*
X120566917Y-71049162D01*
X120783041Y-70910090D01*
X120928031Y-70697890D01*
X120979040Y-70446000D01*
X120979040Y-70054492D01*
X124288514Y-70054492D01*
X124534817Y-70578958D01*
X124963076Y-70969245D01*
X125373110Y-71139076D01*
X125603000Y-71017755D01*
X125603000Y-69824600D01*
X124409181Y-69824600D01*
X124288514Y-70054492D01*
X120979040Y-70054492D01*
X120979040Y-69420850D01*
X121059182Y-69340708D01*
X124288514Y-69340708D01*
X124409181Y-69570600D01*
X125603000Y-69570600D01*
X125603000Y-68377445D01*
X125373110Y-68256124D01*
X124963076Y-68425955D01*
X124534817Y-68816242D01*
X124288514Y-69340708D01*
X121059182Y-69340708D01*
X122281890Y-68118000D01*
X131819710Y-68118000D01*
X132041303Y-68339593D01*
X131911890Y-68251169D01*
X131660000Y-68200160D01*
X129960000Y-68200160D01*
X129724683Y-68244438D01*
X129508559Y-68383510D01*
X129363569Y-68595710D01*
X129349914Y-68663141D01*
X129320054Y-68618453D01*
X128838285Y-68296546D01*
X128270000Y-68183507D01*
X127701715Y-68296546D01*
X127219946Y-68618453D01*
X126992298Y-68959153D01*
X126925183Y-68816242D01*
X126496924Y-68425955D01*
X126086890Y-68256124D01*
X125857000Y-68377445D01*
X125857000Y-69570600D01*
X125877000Y-69570600D01*
X125877000Y-69824600D01*
X125857000Y-69824600D01*
X125857000Y-71017755D01*
X126086890Y-71139076D01*
X126496924Y-70969245D01*
X126925183Y-70578958D01*
X126992298Y-70436047D01*
X127219946Y-70776747D01*
X127701715Y-71098654D01*
X128270000Y-71211693D01*
X128838285Y-71098654D01*
X129320054Y-70776747D01*
X129347850Y-70735148D01*
X129356838Y-70782917D01*
X129495910Y-70999041D01*
X129708110Y-71144031D01*
X129875000Y-71177827D01*
X129875000Y-71374000D01*
X129946173Y-71731809D01*
X130148855Y-72035145D01*
X131346710Y-73233000D01*
X114687290Y-73233000D01*
X113203000Y-71748710D01*
X113203000Y-70470082D01*
X113206417Y-70477358D01*
X113634676Y-70867645D01*
X114044710Y-71037476D01*
X114274600Y-70916155D01*
X114274600Y-69723000D01*
X114254600Y-69723000D01*
X114254600Y-69469000D01*
X114274600Y-69469000D01*
X114274600Y-68275845D01*
X114044710Y-68154524D01*
X113634676Y-68324355D01*
X113206417Y-68714642D01*
X113203000Y-68721918D01*
X113203000Y-65538290D01*
X113801541Y-64939749D01*
X113919000Y-64963113D01*
X114468151Y-64853880D01*
X114933698Y-64542811D01*
X115189000Y-64160725D01*
X115444302Y-64542811D01*
X115909849Y-64853880D01*
X116459000Y-64963113D01*
X117008151Y-64853880D01*
X117473698Y-64542811D01*
X117743986Y-64138297D01*
X117846611Y-64355134D01*
X118261577Y-64731041D01*
X118649961Y-64891904D01*
X118872000Y-64769915D01*
X118872000Y-63627000D01*
X119126000Y-63627000D01*
X119126000Y-64769915D01*
X119348039Y-64891904D01*
X119736423Y-64731041D01*
X120151389Y-64355134D01*
X120269000Y-64106633D01*
X120386611Y-64355134D01*
X120801577Y-64731041D01*
X121189961Y-64891904D01*
X121412000Y-64769915D01*
X121412000Y-63627000D01*
X119126000Y-63627000D01*
X118872000Y-63627000D01*
X118852000Y-63627000D01*
X118852000Y-63373000D01*
X118872000Y-63373000D01*
X118872000Y-62230085D01*
X119126000Y-62230085D01*
X119126000Y-63373000D01*
X121412000Y-63373000D01*
X121412000Y-62230085D01*
X121189961Y-62108096D01*
X120801577Y-62268959D01*
X120386611Y-62644866D01*
X120269000Y-62893367D01*
X120151389Y-62644866D01*
X119736423Y-62268959D01*
X119348039Y-62108096D01*
X119126000Y-62230085D01*
X118872000Y-62230085D01*
X118649961Y-62108096D01*
X118261577Y-62268959D01*
X117846611Y-62644866D01*
X117743986Y-62861703D01*
X117473698Y-62457189D01*
X117008151Y-62146120D01*
X116459000Y-62036887D01*
X115909849Y-62146120D01*
X115444302Y-62457189D01*
X115189000Y-62839275D01*
X114933698Y-62457189D01*
X114468151Y-62146120D01*
X113919000Y-62036887D01*
X113369849Y-62146120D01*
X112904302Y-62457189D01*
X112649000Y-62839275D01*
X112393698Y-62457189D01*
X112314000Y-62403936D01*
X112314000Y-61855290D01*
X113163290Y-61006000D01*
X138425374Y-61006000D01*
X138384000Y-61214000D01*
G36*
X134366000Y-68372001D02*
X134366005Y-68372000D01*
X136432268Y-68372000D01*
X136240676Y-68451355D01*
X135812417Y-68841642D01*
X135566114Y-69366108D01*
X135686781Y-69596000D01*
X136880600Y-69596000D01*
X136880600Y-69576000D01*
X137134600Y-69576000D01*
X137134600Y-69596000D01*
X137154600Y-69596000D01*
X137154600Y-69850000D01*
X137134600Y-69850000D01*
X137134600Y-69870000D01*
X136880600Y-69870000D01*
X136880600Y-69850000D01*
X135686781Y-69850000D01*
X135566114Y-70079892D01*
X135812417Y-70604358D01*
X136240676Y-70994645D01*
X136650710Y-71164476D01*
X136880598Y-71043156D01*
X136880598Y-71201000D01*
X135769290Y-71201000D01*
X134285000Y-69716710D01*
X134285000Y-68355889D01*
X134366000Y-68372001D01*
X134366000Y-68372001D01*
G37*
X134366000Y-68372001D02*
X134366005Y-68372000D01*
X136432268Y-68372000D01*
X136240676Y-68451355D01*
X135812417Y-68841642D01*
X135566114Y-69366108D01*
X135686781Y-69596000D01*
X136880600Y-69596000D01*
X136880600Y-69576000D01*
X137134600Y-69576000D01*
X137134600Y-69596000D01*
X137154600Y-69596000D01*
X137154600Y-69850000D01*
X137134600Y-69850000D01*
X137134600Y-69870000D01*
X136880600Y-69870000D01*
X136880600Y-69850000D01*
X135686781Y-69850000D01*
X135566114Y-70079892D01*
X135812417Y-70604358D01*
X136240676Y-70994645D01*
X136650710Y-71164476D01*
X136880598Y-71043156D01*
X136880598Y-71201000D01*
X135769290Y-71201000D01*
X134285000Y-69716710D01*
X134285000Y-68355889D01*
X134366000Y-68372001D01*
M02*
