G04 #@! TF.FileFunction,Other,User*
%FSLAX46Y46*%
G04 Gerber Fmt 4.6, Leading zero omitted, Abs format (unit mm)*
G04 Created by KiCad (PCBNEW 4.0.7) date 04/10/18 22:25:08*
%MOMM*%
%LPD*%
G01*
G04 APERTURE LIST*
%ADD10C,0.100000*%
%ADD11C,0.050000*%
%ADD12C,0.150000*%
G04 APERTURE END LIST*
D10*
D11*
X106963000Y-131191000D02*
G75*
G03X106963000Y-131191000I-2950000J0D01*
G01*
X167923000Y-131191000D02*
G75*
G03X167923000Y-131191000I-2950000J0D01*
G01*
X167923000Y-39751000D02*
G75*
G03X167923000Y-39751000I-2950000J0D01*
G01*
D12*
X139871000Y-113386500D02*
X145871000Y-113386500D01*
X145871000Y-113386500D02*
X145871000Y-102386500D01*
X145871000Y-102386500D02*
X139871000Y-102386500D01*
X139871000Y-102386500D02*
X139871000Y-113386500D01*
D11*
X117699500Y-112845500D02*
X108499500Y-112845500D01*
X108499500Y-112845500D02*
X108499500Y-132645500D01*
X108499500Y-132645500D02*
X117699500Y-132645500D01*
X117699500Y-132645500D02*
X117699500Y-112845500D01*
X106963000Y-39751000D02*
G75*
G03X106963000Y-39751000I-2950000J0D01*
G01*
X131950900Y-104678600D02*
X131950900Y-111678600D01*
X131950900Y-111678600D02*
X138950900Y-111678600D01*
X138950900Y-111678600D02*
X138950900Y-104678600D01*
X138950900Y-104678600D02*
X131950900Y-104678600D01*
X111406500Y-110624500D02*
X111406500Y-103624500D01*
X111406500Y-103624500D02*
X104406500Y-103624500D01*
X104406500Y-103624500D02*
X104406500Y-110624500D01*
X104406500Y-110624500D02*
X111406500Y-110624500D01*
X158595500Y-103751500D02*
X158595500Y-110751500D01*
X158595500Y-110751500D02*
X165595500Y-110751500D01*
X165595500Y-110751500D02*
X165595500Y-103751500D01*
X165595500Y-103751500D02*
X158595500Y-103751500D01*
D12*
X123983300Y-112865800D02*
X129983300Y-112865800D01*
X129983300Y-112865800D02*
X129983300Y-101865800D01*
X129983300Y-101865800D02*
X123983300Y-101865800D01*
X123983300Y-101865800D02*
X123983300Y-112865800D01*
D11*
X132624000Y-51555000D02*
X121434000Y-51555000D01*
X132624000Y-51555000D02*
X132624000Y-38615000D01*
X121434000Y-38615000D02*
X121434000Y-51555000D01*
X121434000Y-38615000D02*
X132624000Y-38615000D01*
X119924000Y-51555000D02*
X108734000Y-51555000D01*
X119924000Y-51555000D02*
X119924000Y-38615000D01*
X108734000Y-38615000D02*
X108734000Y-51555000D01*
X108734000Y-38615000D02*
X119924000Y-38615000D01*
X159294000Y-51555000D02*
X148104000Y-51555000D01*
X159294000Y-51555000D02*
X159294000Y-38615000D01*
X148104000Y-38615000D02*
X148104000Y-51555000D01*
X148104000Y-38615000D02*
X159294000Y-38615000D01*
X146594000Y-51555000D02*
X135404000Y-51555000D01*
X146594000Y-51555000D02*
X146594000Y-38615000D01*
X135404000Y-38615000D02*
X135404000Y-51555000D01*
X135404000Y-38615000D02*
X146594000Y-38615000D01*
X128488000Y-118879000D02*
X139678000Y-118879000D01*
X128488000Y-118879000D02*
X128488000Y-131819000D01*
X139678000Y-131819000D02*
X139678000Y-118879000D01*
X139678000Y-131819000D02*
X128488000Y-131819000D01*
X155597000Y-95634400D02*
X113897000Y-95634400D01*
X113897000Y-95634400D02*
X113897000Y-99234400D01*
X113897000Y-99234400D02*
X155597000Y-99234400D01*
X155597000Y-99234400D02*
X155597000Y-95634400D01*
X155597000Y-75314400D02*
X113897000Y-75314400D01*
X113897000Y-75314400D02*
X113897000Y-78914400D01*
X113897000Y-78914400D02*
X155597000Y-78914400D01*
X155597000Y-78914400D02*
X155597000Y-75314400D01*
X112475300Y-103314700D02*
X112475300Y-106514700D01*
X112475300Y-106514700D02*
X122225300Y-106514700D01*
X122225300Y-106514700D02*
X122225300Y-103314700D01*
X122225300Y-103314700D02*
X112475300Y-103314700D01*
X122144500Y-111010500D02*
X122144500Y-107810500D01*
X122144500Y-107810500D02*
X112394500Y-107810500D01*
X112394500Y-107810500D02*
X112394500Y-111010500D01*
X112394500Y-111010500D02*
X122144500Y-111010500D01*
X158699000Y-54330000D02*
X137699000Y-54330000D01*
X137699000Y-54330000D02*
X137699000Y-65030000D01*
X137699000Y-65030000D02*
X158699000Y-65030000D01*
X158699000Y-65030000D02*
X158699000Y-54330000D01*
X130759000Y-54330000D02*
X109759000Y-54330000D01*
X109759000Y-54330000D02*
X109759000Y-65030000D01*
X109759000Y-65030000D02*
X130759000Y-65030000D01*
X130759000Y-65030000D02*
X130759000Y-54330000D01*
X147730000Y-115498000D02*
X141830000Y-115498000D01*
X141830000Y-115498000D02*
X141830000Y-131898000D01*
X141830000Y-131898000D02*
X147730000Y-131898000D01*
X147730000Y-131898000D02*
X147730000Y-115498000D01*
X125822500Y-114926500D02*
X119922500Y-114926500D01*
X119922500Y-114926500D02*
X119922500Y-131326500D01*
X119922500Y-131326500D02*
X125822500Y-131326500D01*
X125822500Y-131326500D02*
X125822500Y-114926500D01*
X121281600Y-67796000D02*
X112631600Y-67796000D01*
X112631600Y-67796000D02*
X112631600Y-71396000D01*
X112631600Y-71396000D02*
X121281600Y-71396000D01*
X121281600Y-71396000D02*
X121281600Y-67796000D01*
X132610000Y-67897600D02*
X123960000Y-67897600D01*
X123960000Y-67897600D02*
X123960000Y-71497600D01*
X123960000Y-71497600D02*
X132610000Y-71497600D01*
X132610000Y-71497600D02*
X132610000Y-67897600D01*
X143887600Y-67923000D02*
X135237600Y-67923000D01*
X135237600Y-67923000D02*
X135237600Y-71523000D01*
X135237600Y-71523000D02*
X143887600Y-71523000D01*
X143887600Y-71523000D02*
X143887600Y-67923000D01*
X155724000Y-67897600D02*
X147074000Y-67897600D01*
X147074000Y-67897600D02*
X147074000Y-71497600D01*
X147074000Y-71497600D02*
X155724000Y-71497600D01*
X155724000Y-71497600D02*
X155724000Y-67897600D01*
X150905500Y-131947000D02*
X160105500Y-131947000D01*
X160105500Y-131947000D02*
X160105500Y-112147000D01*
X160105500Y-112147000D02*
X150905500Y-112147000D01*
X150905500Y-112147000D02*
X150905500Y-131947000D01*
X156371000Y-106819500D02*
X156371000Y-103619500D01*
X156371000Y-103619500D02*
X146621000Y-103619500D01*
X146621000Y-103619500D02*
X146621000Y-106819500D01*
X146621000Y-106819500D02*
X156371000Y-106819500D01*
X146619250Y-108170001D02*
X146619250Y-111370001D01*
X146619250Y-111370001D02*
X156369250Y-111370001D01*
X156369250Y-111370001D02*
X156369250Y-108170001D01*
X156369250Y-108170001D02*
X146619250Y-108170001D01*
M02*
